<?xml version="1.0" encoding="UTF-8"?>
<svg id="Layer_1" xmlns="http://www.w3.org/2000/svg" viewBox="0 0 271.55 383.85">
  <defs>
    <style>
      .cls-1 {
        fill: #0065f3;
      }

      .cls-2 {
        fill: #fff;
      }

      .cls-3 {
        fill: #004ce7;
      }

      .cls-4 {
        fill: #fefefe;
      }

      .cls-5 {
        fill: #eaeaea;
      }
    </style>
  </defs>
  <path class="cls-3" d="M134.28,383.85c-9.08-3.45-18.57-5.49-27.89-8.12-26.26-7.41-52.58-14.64-78.9-21.85-2.31-.63-3.13-1.73-3.33-4.07-3.01-34.95-6.07-69.89-9.19-104.83-3.87-43.39-7.81-86.78-11.71-130.17-1.07-11.94-2.04-23.88-3.2-35.81-.27-2.74.32-3.6,3.27-3.59,88.31.08,176.62.08,264.93,0,3,0,3.49.93,3.24,3.62-1.92,20.63-3.71,41.28-5.56,61.92-1.89,21.14-3.8,42.27-5.7,63.41-2.15,24-4.31,47.99-6.45,71.99-1.85,20.76-3.7,41.53-5.54,62.3-.32,3.61-.73,7.21-.85,10.83-.09,2.63-1.13,3.8-3.76,4.52-34.13,9.36-68.22,18.85-102.31,28.34-1.38.38-2.95.35-4.04,1.52h-3Z"/>
  <path class="cls-2" d="M154.52,0c0,4.25-.09,8.5.04,12.74.05,1.81-.5,2.32-2.3,2.29-6.37-.1-12.74-.07-19.12,0-1.02.01-2.64-.79-2.64,1.46,0,2.26,1.61,1.46,2.64,1.47,6.25.06,12.5.12,18.74-.02,2.1-.05,2.72.53,2.69,2.67-.11,9.74-.11,19.49,0,29.24.02,2.11-.55,2.7-2.67,2.68-11.99-.1-23.99-.1-35.98,0-2.12.02-2.77-.56-2.67-2.68.17-3.62.14-7.25,0-10.87-.07-1.83.52-2.31,2.31-2.28,6.37.1,12.74.07,19.12,0,1.02-.01,2.64.78,2.63-1.47,0-2.26-1.62-1.45-2.64-1.46-6.25-.07-12.5-.12-18.74.02-2.12.05-2.7-.55-2.68-2.68.11-10.37.05-20.74.05-31.11h41.23Z"/>
  <path class="cls-2" d="M204,0c0,4.25-.09,8.5.04,12.74.05,1.81-.5,2.32-2.3,2.29-6.37-.1-12.74-.07-19.12,0-1.02.01-2.64-.79-2.64,1.46,0,2.26,1.61,1.46,2.64,1.47,6.25.06,12.5.12,18.74-.02,2.1-.05,2.72.53,2.69,2.67-.11,9.74-.11,19.49,0,29.24.02,2.11-.55,2.7-2.67,2.68-11.99-.1-23.99-.1-35.98,0-2.12.02-2.77-.56-2.67-2.68.17-3.62.14-7.25,0-10.87-.07-1.83.52-2.31,2.31-2.28,6.37.1,12.74.07,19.12,0,1.02-.01,2.64.78,2.63-1.47,0-2.26-1.62-1.45-2.64-1.46-6.25-.07-12.5-.12-18.74.02-2.12.05-2.7-.55-2.68-2.68.11-10.37.05-20.74.05-31.11h41.23Z"/>
  <path class="cls-2" d="M105.04,0c0,5-.08,9.99.04,14.99.04,1.8-.49,2.32-2.29,2.3-6.37-.1-12.74.05-19.11-.09-2.12-.05-2.76.56-2.68,2.68.17,4.12.14,8.25,0,12.36-.06,1.82.51,2.32,2.3,2.29,6.37-.1,12.74.05,19.11-.09,2.14-.05,2.75.58,2.67,2.69-.16,4.12-.14,8.25,0,12.36.06,1.83-.53,2.29-2.31,2.28-12.24-.07-24.48-.13-36.72.03-2.79.04-2.24-1.56-2.24-3.08-.01-16.24,0-32.48,0-48.72h41.23Z"/>
  <path class="cls-1" d="M135.77,131.91c0-10.12.09-20.24-.04-30.36-.03-2.65.85-3.39,3.44-3.38,34.73.07,69.46.08,104.19-.02,3.03,0,3.65,1.19,3.38,3.77-1.26,12.46-2.56,24.91-3.69,37.39-.89,9.89-1.47,19.81-2.34,29.7-.86,9.76-1.96,19.49-2.87,29.24-.61,6.55-1.02,13.12-1.61,19.67-.92,10.13-2.12,20.23-2.8,30.37-.42,6.32-1.11,12.61-1.68,18.92-.98,10.74-1.98,21.49-2.91,32.24-.82,9.52-1.75,19.04-2.28,28.58-.4,7.01-.43,7.28-7.09,9.11-26.73,7.35-53.45,14.72-80.15,22.21-2.75.77-3.61.31-3.58-2.55.09-9.24.03-18.49.04-27.74,0-1.61.26-3.3-1.49-4.31.38-.61.98-.9,1.64-1.08,21.1-5.64,42.09-11.72,63.2-17.34,3.94-1.05,5.57-3.01,5.84-6.89.87-12.32,2.1-24.6,3.2-36.9,1.38-15.53,2.8-31.05,4.16-46.58,1.11-12.67,2.31-25.33,3.38-38.01,1.02-12.18,2.16-24.35,3.33-36.52.25-2.57,1.04-5.19-.56-7.62-1.43-1.16-3.12-.77-4.7-.77-24.1-.02-48.2,0-72.31-.04-1.93,0-4.04.55-5.7-1.08Z"/>
  <path class="cls-5" d="M135.78,324.63c-.5.04-.99.07-1.49.11-20.61-5.78-41.22-11.58-61.84-17.32-6.74-1.88-6.63-1.83-7.19-8.73-1.18-14.41-2.47-28.82-3.84-43.21-.24-2.57.29-3.5,3.07-3.46,9.35.16,18.71.11,28.07.02,2.04-.02,2.79.54,2.95,2.66.55,7.33,1.33,14.65,2,21.97.12,1.34-.09,2.6,1.86,3.08,12.18,3.04,24.15,6.89,36.44,9.51.16.19.32.37.49.55.78,1.51.66,3.15.67,4.77.02,8.23.03,16.47,0,24.7,0,1.85.18,3.78-1.18,5.35Z"/>
  <path class="cls-5" d="M135.77,131.91c14.22.06,28.44.13,42.66.17,12.73.03,25.45-.02,38.18.04,1.28,0,2.74-.62,3.88.57-1.8,1.55-4,1.2-6.08,1.2-23.44.03-46.89.01-70.33.02-1.37,0-2.74,0-4.11.07-1.75.1-2.84.87-2.88,2.72-.16,8.35-.15,16.71-.01,25.06.04,2.45,1.8,2.67,3.65,2.69,6.61.07,13.22.02,19.83.03,6.24.01,12.47-.08,18.7.06,1.69.04,3.85-.5,4.53,2.02-1.47,1.26-3.27,1.07-4.98,1.08-12.68.03-25.37.03-38.05,0-1.73,0-3.51.1-4.97-1.14-9.85-.07-19.7-.17-29.55-.19-16.09-.03-32.19-.11-48.28.07-3.38.04-4.68-.57-4.87-4.32-.43-8.83-1.33-17.66-2.4-26.44-.36-2.96.3-3.57,3.16-3.56,25.82.1,51.65.06,77.47.05,1.49,0,2.98-.14,4.47-.21Z"/>
  <path class="cls-5" d="M135.77,235.42c-5.61-.08-11.22-.22-16.82-.23-18.6-.03-37.19-.07-55.79.05-2.9.02-3.78-.78-3.96-3.72-.55-8.96-1.28-17.92-2.38-26.83-.43-3.51.8-3.76,3.7-3.74,23.71.1,47.42.06,71.14.05,1.37,0,2.74-.11,4.1-.17,1.36-1.14,3.01-1.1,4.62-1.11,11.97-.03,23.94-.03,35.91,0,1.49,0,3.01-.04,4.29.96-.19,2.63-2.36,2.05-3.81,2.09-6.23.2-12.46.07-18.69.09-5.73.01-11.47.06-17.2-.02-2.88-.04-3.97,1.18-3.94,4.02.08,7.48.11,14.96,0,22.43-.05,3.06,1.16,4.2,4.18,4.18,10.59-.06,21.19-.1,31.78.03,1.76.02,4.11-.73,4.83,2.04-1.35,1.16-3.01,1.04-4.61,1.05-10.8.04-21.6.03-32.4,0-1.73,0-3.51.08-4.95-1.19Z"/>
  <path class="cls-1" d="M135.77,235.42c13.97-.2,27.94-.54,41.9.18,1.07,1.03.66,2.31.58,3.52-.83,12.42-2.31,24.78-3.21,37.19-.16,2.22-1.09,3.86-3.27,4.5-11.11,3.28-22.34,6.12-33.52,9.14-.86.23-1.73.13-2.51-.4,0,0,.07-.29.07-.29-.01-17.95-.02-35.89-.04-53.84Z"/>
  <path class="cls-1" d="M180.68,200.75c-14.97.42-29.94.26-44.91.08,0-11.44,0-22.88,0-34.33,15.97-.2,31.94-.37,47.91.09.84.78.73,1.8.68,2.79-.55,9.59-1.54,19.14-2.54,28.69-.1,1-.26,1.99-1.14,2.67Z"/>
  <path class="cls-4" d="M180.68,200.75c1-11.39,2-22.77,3.01-34.16-.94-1.54-2.48-.89-3.75-.9-13.49-.05-26.98-.12-40.47.04-3.04.04-3.81-.94-3.75-3.84.17-8.49.19-16.99,0-25.48-.07-3.04.94-3.76,3.83-3.75,26.98.09,53.96.03,80.94.02.24,8.37-1.13,16.64-1.82,24.94-1.75,21-3.75,41.98-5.64,62.97-2.18,24.22-4.35,48.44-6.52,72.66-.3,3.35-.68,6.7-.87,10.06-.09,1.54-.45,2.41-2.14,2.87-22.33,6.11-44.64,12.31-66.96,18.47-.23.06-.49-.01-.74-.03-.01-11.69-.03-23.39-.04-35.08,11.28-3.05,22.53-6.22,33.86-9.08,3.15-.8,4.28-2.1,4.52-5.45.96-13.16,2.33-26.29,3.55-39.43-.89-1.62-2.44-.94-3.7-.94-11.61-.05-23.22-.1-34.84.02-2.6.03-3.46-.75-3.41-3.39.14-8.61.16-17.23,0-25.84-.06-2.92.75-3.87,3.76-3.83,12.48.16,24.97.09,37.46.04,1.27,0,2.8.64,3.74-.9Z"/>
</svg>