<?xml version="1.0" encoding="UTF-8"?>
<svg id="Layer_2" xmlns="http://www.w3.org/2000/svg" viewBox="0 0 271.51 383.85">
  <defs>
    <style>
      .cls-1 {
        fill: #fe4c1e;
      }

      .cls-2 {
        fill: #fff;
      }

      .cls-3 {
        fill: #fe651e;
      }

      .cls-4 {
        fill: #fefefe;
      }

      .cls-5 {
        fill: #eaeaea;
      }
    </style>
  </defs>
  <g id="Layer_1-2" data-name="Layer_1">
    <path class="cls-1" d="M134.25,383.85c-10.19-3.68-20.76-6.05-31.17-8.97-25.08-7.05-50.18-13.99-75.32-20.84-2.66-.72-3.47-1.94-3.7-4.56-2.88-33.21-5.88-66.4-8.83-99.6-2.36-26.61-4.64-53.23-7.01-79.84-2.61-29.34-5.26-58.68-7.96-88.02-.6-6.55-.72-6.54,5.64-6.54,87.07,0,174.13,0,261.2,0,4.58,0,4.66.01,4.24,4.7-2.63,29.34-5.32,58.68-7.94,88.02-2.12,23.75-4.15,47.51-6.27,71.25-2.37,26.61-4.8,53.21-7.19,79.82-.88,9.82-1.82,19.64-2.48,29.48-.2,3.03-1.09,4.46-4.22,5.32-34.39,9.37-68.73,18.93-103.07,28.49-.98.27-2.3.09-2.94,1.28h-3Z"/>
    <path class="cls-2" d="M196.47,0c.05,16.48.08,32.96.2,49.44.01,1.77-.43,2.39-2.27,2.33-4.12-.13-8.25-.16-12.36,0-2.16.09-2.73-.64-2.69-2.74.12-6.49.05-12.99.04-19.48,0-.7-.07-1.41-.15-3.08-4.19,6.42-7.88,12.08-11.83,18.13-3.92-5.97-7.7-11.73-12.13-18.47,0,8.19-.17,15.24.08,22.27.11,2.95-.85,3.56-3.53,3.38-3.48-.24-7-.25-10.48,0-2.62.19-3.05-.84-3.03-3.16.09-15.11.05-30.22.03-45.34,0-1.1.29-2.25-.36-3.29h18.74c2.62,1.78,3.55,4.76,5.13,7.27,2.06,3.27,4.16,6.52,5.89,10.02-.09.45.5-.26.04-.08-.21.08-.3-.05-.14-.33C171.02,11.09,173.66,4.85,178.48,0h17.99Z"/>
    <path class="cls-2" d="M75.77,0c-.08,13.22-.12,26.45-.28,39.67-.05,3.95,1.72,9.24-.76,11.47-2.17,1.95-7.36.56-11.22.58-5.23.03-5.23,0-5.23-5.28,0-2.87-.16-5.76.05-8.61.18-2.49-.37-3.63-3.18-3.4-3.23.26-6.5.2-9.73.01-2.23-.13-3.07.41-2.94,2.82.22,3.98-.04,7.99.1,11.98.07,1.98-.56,2.59-2.53,2.53-3.99-.14-8-.21-11.98.02-2.54.14-3.1-.72-3.08-3.13.1-14.86.06-29.72.04-44.58,0-1.36-.16-2.72-.24-4.08h17.24c1.36,1.57,1.08,3.5,1.12,5.34.05,2.36.03,4.73.03,7.09,0,2.43,1,3.71,3.55,3.67,2.36-.04,4.73-.04,7.09,0,2.55.04,3.55-1.25,3.55-3.67,0-2.61-.02-5.22.03-7.83C57.44,2.98,57.35,1.33,58.53,0h17.24Z"/>
    <path class="cls-2" d="M130.5,0c.08,5.11.09,10.22.29,15.33.07,1.87-.87,1.96-2.28,1.93-3.25-.06-6.51.15-9.74-.07-2.54-.18-3.39.45-3.33,3.18.19,9.49,0,18.99.12,28.49.03,2.21-.37,3.09-2.82,2.94-3.73-.24-7.5-.23-11.24,0-2.57.16-3.37-.5-3.31-3.2.19-9.49,0-18.99.13-28.49.03-2.24-.42-3.08-2.84-2.92-3.36.23-6.75-.04-10.11.1-1.81.07-2.36-.5-2.3-2.31C83.23,9.99,83.22,4.99,83.27,0,99.01,0,114.76,0,130.5,0Z"/>
    <path class="cls-2" d="M222.71,0c-.05,10.85-.05,21.7-.21,32.54-.03,2.14,1.06,2.06,2.55,2.05,6.36-.04,12.73.06,19.09-.06,2.05-.04,2.87.46,2.78,2.66-.17,3.99-.12,7.98-.01,11.97.05,1.8-.24,2.63-2.37,2.61-12.35-.1-24.7-.07-37.05-.03-1.49,0-2.22-.21-2.21-2,.12-16.59.15-33.17.2-49.76h17.24Z"/>
    <path class="cls-3" d="M135.74,131.9c0-10.12.08-20.23-.05-30.35-.03-2.64.83-3.4,3.43-3.39,34.72.07,69.43.08,104.15-.01,2.96,0,3.71,1.06,3.44,3.72-.99,9.74-1.94,19.48-2.86,29.23-.6,6.42-1.08,12.86-1.66,19.28-.94,10.37-1.93,20.73-2.86,31.1-.58,6.43-1.06,12.86-1.64,19.28-.94,10.37-1.94,20.73-2.89,31.1-.56,6.18-1.05,12.36-1.61,18.54-.96,10.62-1.97,21.23-2.91,31.85-.82,9.27-1.52,18.54-2.35,27.81-.66,7.4-1.55,14.79-2.06,22.2-.18,2.63-1.61,3.31-3.66,3.88-11.26,3.12-22.49,6.3-33.75,9.44-16.28,4.54-32.58,8.98-48.82,13.65-3.04.87-4.02.46-3.96-2.83.15-9.11.05-18.23.05-27.35,0-1.6.29-3.31-1.5-4.29.35-.62.94-.9,1.58-1.1,21.59-5.81,43.09-11.97,64.66-17.84,2.49-.68,3.77-1.87,4.06-4.56,1.12-10.3,1.81-20.63,2.79-30.94,1.16-12.3,2.25-24.6,3.34-36.91.82-9.2,1.47-18.41,2.54-27.58.13-1.13.1-2.26-.81-3.14-1.45-1.1-3.14-.72-4.73-.72-22.1-.02-44.21,0-66.31-.03-1.96,0-4.02.41-5.82-.86-.99-1.27-1-2.79-1.01-4.28-.05-8.72-.04-17.44,0-26.16,0-1.49,0-3.01.93-4.31,1.74-1.38,3.81-.95,5.77-.96,23.33-.03,46.65-.01,69.98-.03,1.6,0,3.26.31,4.7-.72,2.12-2.8,1.3-6.2,1.71-9.29.72-5.5,1.01-11.06,1.59-16.59.18-1.69.47-3.47-.79-4.96-1.42-1.17-3.11-.78-4.7-.78-24.1-.02-48.2,0-72.3-.04-1.93,0-4.04.55-5.7-1.08Z"/>
    <path class="cls-5" d="M217.43,165.69c-1.13,1.21-2.59.59-3.87.59-24.45.04-48.89.03-73.34.04-1.49,0-2.99.1-4.48.16-1.71,1.41-3.78,1.11-5.75,1.11-11.99.03-23.98,0-35.97.03-4.89.02-4.88.21-4.56,5.17.45,7.1,1.31,14.16,1.78,21.26.34,5.11.93,5.67,6.14,5.69,10.99.03,21.98,0,32.97.02,1.85,0,3.78-.24,5.39,1.07,24.95.05,49.91.08,74.86.18,1.24,0,2.73-.75,3.78.66-1.79,1.58-4,1.18-6.07,1.19-21.44.03-42.88.02-64.32.02-1.37,0-2.74,0-4.11.08-1.77.1-2.81.92-2.84,2.75-.15,8.35-.16,16.7,0,25.05.05,2.74,2.14,2.67,4.03,2.68,9.85.06,19.69.01,29.54.03,1.5,0,3-.11,4.48.15,1.15.2,2.61.13,2.65,1.93-1.23,1.09-2.76,1.06-4.24,1.06-11.06.05-22.12.04-33.18,0-1.62,0-3.26-.02-4.57-1.21-2.86-.09-5.72-.26-8.58-.26-21.23-.02-42.45-.09-63.68.07-3.3.02-4.06-.97-4.33-4.16-1.99-23.62-4.24-47.22-6.4-70.82-.77-8.45-1.42-16.91-2.36-25.34-.35-3.12,1.41-2.78,3.34-2.77,25.85.01,51.69.01,77.54,0,1.49,0,2.98-.13,4.47-.21,16.09.06,32.18.12,48.27.16,10.98.03,21.96-.02,32.94.03,1.17,0,2.5-.56,3.51.58-1.92,1.62-4.25,1.2-6.46,1.21-23.2.03-46.39.02-69.59.02-1.12,0-2.25.07-3.37,0-3.09-.21-4.16,1.25-4.12,4.25.11,7.23,0,14.47.05,21.7.03,4.25.38,4.6,4.81,4.61,23.07.03,46.14,0,69.22.04,2.19,0,4.54-.51,6.44,1.19Z"/>
    <path class="cls-5" d="M135.74,324.67c-.5.03-.99.07-1.49.1-21.48-6.04-42.95-12.13-64.46-18.06-2.75-.76-4.14-1.75-4.38-4.83-1.2-15.43-2.56-30.85-4.02-46.26-.27-2.83.43-3.67,3.32-3.62,9.12.18,18.24.12,27.36.02,2.24-.02,3.29.37,3.45,2.97.45,7.22,1.27,14.42,1.94,21.63.12,1.31-.17,2.63,1.8,3.13,12.19,3.09,24.35,6.31,36.52,9.48.16.19.32.37.49.56.78,1.51.66,3.16.67,4.77.02,8.24.03,16.49,0,24.73,0,1.86.16,3.78-1.19,5.35Z"/>
    <path class="cls-3" d="M135.75,235.4c13.97-.15,27.94-.49,41.91.17,1.06,1.04.65,2.31.57,3.53-.84,12.42-2.34,24.78-3.2,37.2-.21,3.05-2.09,4.33-4.67,5.05-10.44,2.9-20.95,5.58-31.4,8.44-1.1.3-2.21.45-3.24-.25,0,0,.07-.29.07-.29-.01-17.95-.02-35.9-.04-53.85Z"/>
    <path class="cls-4" d="M135.71,289.54c11.54-3.08,23.06-6.24,34.64-9.19,2.62-.67,3.47-1.89,3.68-4.57,1.07-13.41,2.39-26.81,3.63-40.21-.92-1.58-2.46-.91-3.73-.92-11.61-.05-23.23-.1-34.84.02-2.62.03-3.44-.79-3.4-3.41.14-8.49.2-16.99-.02-25.47-.09-3.29.82-4.22,4.16-4.2,24.85.14,49.7.07,74.54.07-.81,10.2-1.55,20.4-2.45,30.58-1.6,18.15-3.29,36.3-4.93,54.45-.51,5.59-1.05,11.19-1.47,16.79-.11,1.42-.49,2.21-2,2.62-22.6,6.15-45.18,12.36-67.77,18.56-.01-11.71-.02-23.42-.03-35.13Z"/>
    <path class="cls-4" d="M217.43,165.69c-25.86-.01-51.73-.08-77.59.05-3.33.02-4.27-.88-4.17-4.19.23-8.37.2-16.74.01-25.11-.07-3,.88-3.79,3.81-3.78,26.99.09,53.98.04,80.96.02-.33,11.06-1.39,22.06-3.02,33.01Z"/>
    <path class="cls-1" d="M135.74,200.83c-14.22.06-28.45.1-42.67.21-1.75.01-2.33-.54-2.48-2.29-.85-9.94-1.81-19.87-2.78-29.8-.17-1.79.1-2.74,2.28-2.72,15.22.15,30.44.18,45.66.25,0,11.45,0,22.9,0,34.35Z"/>
  </g>
</svg>