<?xml version="1.0" encoding="UTF-8"?>
<svg id="Layer_2" xmlns="http://www.w3.org/2000/svg" viewBox="0 0 384 384">
  <defs>
    <style>
      .cls-1 {
        fill: #fede00;
      }

      .cls-2 {
        fill: #fefefe;
      }
    </style>
  </defs>
  <g id="Layer_1-2" data-name="Layer_1">
    <g>
      <path class="cls-1" d="M383.06,383.93c-126.54,0-253.08-.01-379.62.07-2.8,0-3.44-.63-3.44-3.44C.08,254.02.07,127.47.07.93c1.29-.7,2.69-.35,4.04-.35,124.91-.02,249.82-.02,374.72-.01,5.12,0,4.59-.55,4.59,4.59,0,124.91,0,249.82-.01,374.73,0,1.35.34,2.75-.35,4.05Z"/>
      <path class="cls-2" d="M383.06,383.93c0-126.15-.02-252.3.09-378.45,0-3.76-.88-4.65-4.65-4.65C252.36.95,126.22.93.07.93.74-.62,2.09.23,3.06.23c15.58-.07,31.17-.05,46.75-.05,110.21,0,220.42.01,330.63-.07,2.8,0,3.44.63,3.44,3.44-.08,125.67-.07,251.34-.12,377.01,0,1.09.86,2.54-.7,3.37Z"/>
      <path d="M292.94,353.99c-20.13-.35-38.91-5.83-53.8-21.24-3.83-3.96-6.95-8.43-9.76-13.17-1.23-2.06-.79-2.81,1.16-3.91,8.13-4.57,16.19-9.28,24.2-14.06,1.97-1.18,2.95-1.14,4.29.98,5.56,8.79,12.85,15.52,23.27,18.1,7.52,1.86,15.08,1.98,22.45-.64,6.48-2.3,11.34-6.44,12.36-13.65,1.04-7.42-2.15-13.09-8.28-17.13-7-4.61-14.79-7.61-22.44-10.91-10.98-4.74-21.95-9.51-30.99-17.63-15.5-13.91-19.58-31.58-14.78-51.01,4.75-19.24,18.68-29.6,37.54-33.68,9.62-2.08,19.34-1.79,28.95.16,15.34,3.11,26.43,12.09,34.47,25.27,1.28,2.1.33,2.67-1.16,3.61-7.67,4.87-15.36,9.71-22.91,14.76-2.17,1.45-3.09,1.26-4.5-.99-6.53-10.42-14.88-14.33-25.74-12.27-5.95,1.13-10.42,4.3-12.12,10.29-1.74,6.13-.83,11.88,3.93,16.55,3.99,3.91,9.01,6.16,14,8.42,12.45,5.62,25.17,10.63,36.78,18.04,25.83,16.5,27.17,45.13,19.59,63.67-6.55,16.02-19.78,24.05-35.86,28.13-6.54,1.66-13.25,2.22-20.64,2.3Z"/>
      <path d="M208.69,241.93c0,18.95,0,37.89,0,56.84,0,6.63-.56,13.21-2.26,19.62-4.49,16.89-14.93,28.25-31.91,32.84-16.9,4.57-33.58,3.85-49.42-4.24-10.31-5.26-17.68-13.57-23.09-23.72-.84-1.57-.93-2.47.85-3.52,8.47-4.98,16.89-10.07,25.24-15.25,1.71-1.06,2.45-.81,3.4.88,1.46,2.6,3.06,5.14,4.84,7.53,6.14,8.26,16.3,11.12,26,7.5,6.28-2.34,8.75-7.47,9.68-13.52.53-3.43.67-6.95.67-10.43.04-38.64.07-77.28-.05-115.92,0-3.13.77-3.94,3.88-3.87,9.59.22,19.2.2,28.79,0,2.9-.06,3.46.84,3.44,3.56-.11,20.57-.06,41.13-.06,61.7Z"/>
    </g>
  </g>
</svg>