<?xml version="1.0" encoding="UTF-8"?>
<svg id="Layer_1" xmlns="http://www.w3.org/2000/svg" viewBox="0 0 582.2 712.95">
  <defs>
    <style>
      .cls-1 {
        fill: #8300f2;
      }
    </style>
  </defs>
  <path class="cls-1" d="M460.42,521.06c-9.3,0-17.89-.14-26.46.03-21.22.42-41.54,5.55-61.31,12.72-31.91,11.56-62.18,26.45-89.73,46.48-28.47,20.7-53.17,45.38-75.5,72.48-6.14,7.45-12.49,14.8-17.89,22.77-7.25,10.7-13.69,21.95-20.47,32.96-.94,1.53-1.89,3.07-4.07,4.47,0-1.65-.16-3.33.02-4.96,2.22-19.32,4.67-38.62,6.72-57.95,2.9-27.3,6.65-54.62.55-81.99-2.09-9.36-5.53-18.05-11.1-25.99-9.91-14.12-14.8-30.47-19.79-46.7-2.39-7.76-2.16-7.87-10.27-6.3-18.86,3.65-37.84,5.87-57.07,4.15-17.16-1.53-31.12-12.89-34.16-28.81-1.07-5.59.5-11.74,1.23-17.6.26-2.06,1.52-4.03,2.46-5.98,2.95-6.1,2.77-11.86-1.69-17.22-4.95-5.95-5.9-12.34-2.7-19.55.7-1.59.47-4.65-.62-5.8-7.58-7.99-7.15-17.52-5.84-27.27,1.47-10.96,1.5-10.91-8.55-15.83-3.73-1.83-7.87-3.34-10.85-6.06-4.31-3.95-8.7-8.38-11.29-13.5-3.47-6.86-2.5-13.69,2.89-20.31,13.24-16.26,25.72-33.13,38.63-49.67,5.11-6.54,6.43-13.09,2.08-20.66-4.94-8.61-3.5-17.26-.53-26.45,6.59-20.39,12.31-41.06,18.18-61.67.64-2.25.39-4.99-.19-7.32-14.03-56.26,23.77-108.57,57.09-127.26,3.29-1.84,6.8-3.29,10.4-4.69-11.37,12.83-21.62,26.18-25.6,43.15.42.48.84.95,1.26,1.43,3.56-2.42,7.15-4.78,10.67-7.26,10.87-7.68,21.26-16.16,32.65-22.95,21.76-12.97,45.53-20.9,70.43-25.58C244.72,1.7,269.56-.95,293.56.32c-16.09,6.75-33.24,13.95-50.4,21.15-.01.82-.03,1.64-.04,2.47,69.45-8.92,127.49,15.1,179.34,60.04-.6-4.6-1.31-9.19-1.78-13.8-1.48-14.57-1.82-29.22,5.86-42.3,6.85-11.66,17.43-18.71,32.44-21.32-19.69,21.03-22.25,44.9-17.36,70.42,3.54-5.7,6.83-11.57,10.66-17.06,15.86-22.75,38.53-28.54,64.28-23.98,36.44,6.46,55.77,30.79,63.89,65.14,9.05,38.33-18.55,73.13-50.11,81.51-11.75,3.12-23.71,2.77-36.47-.5,1.59,2.44,2.92,5.1,4.8,7.27,7.61,8.8,18.59,11.14,28.85,14.96,7.09,2.64,13.94,5.91,21.6,9.19-5.88,7.06-13.2,6.63-19.88,6.48-6.91-.16-13.78-1.83-20.4-2.8-.94,5.67-1.91,11.55-2.88,17.45-5.5-.57-7.49-3.29-9.29-6.75-2.97-5.71-6.39-11.19-9.66-16.75-5.83-9.88-11.69-19.74-17.55-29.6-.96-1.61-2.03-3.16-3.05-4.74-.41.13-.82.25-1.22.38,0,1.56-.1,3.12.02,4.67,1.91,24.84,1.08,49.63-2.31,74.27-3.46,25.1-13.2,47.99-26.43,69.47-8.63,14.01-17.38,27.96-25.79,42.1-6.66,11.2-9.47,23.44-10.42,36.52-2.53,34.88,5.53,66.27,29.59,92.27,7.38,7.97,16.76,14.1,25.26,21.02,1.49,1.21,3.19,2.16,5.31,3.56ZM197.29,149.96c-9.87-1.39-18.37-3.1-26.94-3.7-27.77-1.94-54.76,2.02-81.02,11.36-3.83,1.36-5.5,3.19-6.47,6.98-3.73,14.47-7.71,28.89-11.83,43.26-1.83,6.38-4.44,12.54-6.32,18.91-2.04,6.9-.88,8.2,6.39,8.4,14.99.41,29.98,1.36,44.96,1.16,23.1-.31,36.22,14.53,49.04,30.34-7.35,3.5-14.41,6.78-21.39,10.22-13.85,6.82-28.3,11.55-43.73,13.08-7.94.79-10.88-.5-14.56-7.57-2.69-5.16-4.76-10.64-7.32-15.87-1.4-2.86-3.26-5.5-5.33-8.92-4.13,6.36-7.32,12.03-11.23,17.15-10.61,13.87-21.71,27.38-32.26,41.29-10.12,13.33-8.87,16.51,7.22,21.28,8.29,2.46,16.78,4.43,24.75,7.67,9.74,3.96,10.28,8.53,1.96,14.94-5.91,4.55-8.34,10.26-9.44,17.35-.87,5.57.98,8.31,6.05,10.16,9.83,3.6,19.59,7.42,29.19,11.6,2.86,1.24,5.07,3.96,7.57,6.01-3.13,1.06-6.2,2.79-9.39,3.05-7.29.6-14.65.38-21.97.72-1.44.07-3.9,1.01-4.03,1.83-.3,1.94,0,4.4,1.05,6,1.1,1.67,3.38,2.55,5.12,3.81,2.07,1.5,4.12,3.03,6.02,4.43-2.63,4.6-5.06,8.39-7.01,12.42-2.03,4.18-3.77,8.52-5.31,12.91-3.28,9.3,1.68,18.73,11.31,20.82,4.13.9,8.57.76,12.85.53,5.12-.28,10.47-2.46,15.24-1.48,8.31,1.69,16.37,2.22,24.73,1.1,30.71-4.09,60.4-11.72,88.52-24.93,17.95-8.43,31.95-20.99,37.71-40.36,3.14-10.55,4.36-21.79,5.4-32.81.63-6.64-1.09-13.37-5.3-19.73-.67,1.73-1.16,2.78-1.49,3.88-3.63,12.26-6.75,24.69-11.01,36.72-2.52,7.12-6.23,14.01-10.45,20.29-9.69,14.45-25.02,21.42-40.54,26.86-25.73,9.02-51.93,16.68-77.94,24.89-.28.09-.66-.15-.15-.02,7.92-5.73,16.36-11.35,24.24-17.66,17.88-14.31,30.7-31.76,33.16-55.42,1.64-15.72,3.76-31.39,5.33-47.12.38-3.78,1.92-5.75,5.04-7.68,13.17-8.16,26.23-16.57,36.07-28.9,4.81-6.02,9.24-12.37,9.38-20.47.18-10.49.24-21-.2-31.48-.11-2.59-1.76-5.79-3.75-7.51-11.8-10.26-23.86-20.23-35.95-30.15-2.4-1.97-3.01-3.74-2.08-6.78,3.12-10.18,6.1-20.41,8.73-30.72,2.62-10.26,4.76-20.65,7.38-32.15ZM286.12,319.63c4.92-4.29,5.61-8.25,2.76-13.55-8.33-15.45-6.34-30.31,5.3-43.68,5.44-6.25,12.21-7.4,19.44-5.77,7.15,1.61,12.43,6.53,13.29,13.96.85,7.33,1.32,15.06-.09,22.22-3.53,17.85-12.27,32.14-30.63,38.66-6.1,2.17-12,4.94-17.82,7.8-4.06,1.99-5.04,6.18-2,9.47,1.7,1.84,4.62,3.45,7.06,3.56,11.04.52,20.2-5.2,29.17-10.45,19.16-11.23,31.26-27.8,33.99-50.13,1.66-13.58,1.33-27.28-8.77-38.18-9.68-10.43-21.34-17.76-36.21-14.31-22.43,5.21-33.72,21.03-37.6,42.85-2.61,14.67-.79,18.44,11.82,26.4.28.18.54.39.83.55,4.38,2.35,8.99,4.48,9.45,10.6ZM301.16,392.79c-.69-.35-1.38-.71-2.07-1.06-4.04,6.24-8.19,12.41-12.11,18.73-7.76,12.54-15.89,24.89-22.94,37.82-6.9,12.65-13.51,25.59-18.69,39.01-7.75,20.1-14.73,40.55-20.85,61.2-3.01,10.16-5.21,21.13,1.17,31.45,2.42,3.91,3.98,4.37,7.03.91,5.59-6.32,9.91-13.34,12.01-21.61,1.64-6.45,2.84-13.05,5.02-19.31,8.87-25.42,18.16-50.69,27.06-76.09,8.28-23.63,16.26-47.37,24.37-71.06ZM318.13,44.3c-18.87-9.58-81.23-5.12-115.61,7.2-35.79,12.83-64.21,34.72-83.99,67.61,57.91-46.67,121.8-77.3,199.6-74.81ZM170.35,120.09c9.56-3.61,19.08-7.3,28.68-10.8,18.1-6.6,36.01-13.87,54.42-19.44,30.56-9.25,61.93-13.9,93.99-12.5,11.35.5,22.7,1.24,35.33,1.94-34.95-10.33-69.11-16.07-104.38-9.86-40.52,7.13-76.15,24.89-108.05,50.67ZM404.11,109.72c-35.14-9.82-70.41-12.08-105.81-2.34-23.5,6.47-46.48,14.32-67.68,28.28,57.68-13.68,114.41-27.58,173.49-25.94ZM203.28,23.79c-1.82-.42-2.14-.57-2.45-.55-.83.06-1.67.12-2.47.33-35.1,8.88-65.89,25.36-91.01,51.78-11.6,12.2-17.06,27.23-19.85,43.63,28.16-43.75,68.26-73,115.78-95.19ZM418.11,134.91c-.14-.63-.27-1.26-.41-1.89-48.44-5.07-92.97,10.17-137.31,26.44.1.55.21,1.1.31,1.64,45.8-8.73,91.6-17.46,137.4-26.19ZM541.78,63.19c-1.44-1.02-2.79-2.19-4.32-3.04-13.86-7.69-28.7-9.28-43.96-6.12-18.99,3.94-29.28,16.93-34.28,34.84-.38,1.37-.05,2.93-.05,5.49,21.29-29.45,49.08-37.24,82.62-31.17ZM467.63,113.89c21.11-25.89,46.34-37.54,79.09-28.25-15.78-9.52-32.25-13.46-50.15-6.28-15.55,6.24-24.07,18.34-28.95,34.53ZM431.08,152.47c-26.93,9.17-53.03,18.06-79.14,26.95,28.4-2.21,56.56-5.13,79.14-26.95Z"/>
</svg>