<?xml version="1.0" encoding="UTF-8"?>
<svg id="Layer_1" xmlns="http://www.w3.org/2000/svg" viewBox="0 0 1373.38 736.99">
  <defs>
    <style>
      .cls-1 {
        fill: #353431;
      }

      .cls-2 {
        fill: #fbdb39;
      }
    </style>
  </defs>
  <g>
    <path class="cls-2" d="M458.56,617.05c4.56-.58,9.1-1.5,13.68-1.67,17.17-.64,34.2-2.82,51.32-4.05,3.63-.26,7.24-.47,10.88-.27-.1.87-.11,1.75-.31,2.6-3.83,16.15-7.76,32.27-11.5,48.44-1.9,8.23-4.33,16.35-5.51,24.74-9.42.88-18.83,1.88-28.26,2.6-14.37,1.1-28.76,2-43.14,2.99-1.64.11-3.27.28-4.91.42.02-.43-.02-.87.08-1.29,5.89-24.84,11.78-49.68,17.68-74.53Z"/>
    <path class="cls-2" d="M634.51,677.86c-12.44,0-24.75,1.78-37.12,2.73-11.61.88-23.28,1.06-34.82,2.88-2.26.36-4.61.2-6.92.28,2.26-9.51,4.55-19.01,6.78-28.53,3.74-15.93,7.44-31.86,11.16-47.8,18.25-1.19,36.43-3.23,54.7-4.18,7.13-.37,14.17-2.15,21.39-1.65-.11.76-.16,1.53-.33,2.27-5.57,23.56-11.15,47.12-16.77,70.67-.45,1.9-.96,3.51,1.93,3.33Z"/>
    <path class="cls-2" d="M977.43,650.19c-8.33.74-16.65,1.64-24.99,2.19-15.29,1.01-30.56,2.18-45.82,3.62-1.86.18-3.75.11-5.62.16,3.16-13.36,6.33-26.71,9.47-40.08,2.84-12.08,5.64-24.18,8.46-36.27,21.95-1.86,43.89-3.76,65.84-5.56,3.4-.28,6.83-.1,10.25-.13-3.48,14.85-7.03,29.68-10.42,44.55-2.39,10.5-5.38,20.87-7.17,31.51Z"/>
    <path class="cls-2" d="M862.17,659c-25.3,2.45-50.59,4.91-76,5.92,3.41-14.66,6.87-29.31,10.23-43.98,2.43-10.6,5.35-21.1,7.31-31.81,18.06-1.94,36.19-3.04,54.29-4.48,7.24-.57,14.48-1.26,21.75-1.14-.16,1.08-.25,2.18-.5,3.23-5.68,24.09-11.38,48.17-17.08,72.25Z"/>
    <path class="cls-2" d="M171.55,714.62c-11.27.93-22.55,1.69-33.8,2.84-11.8,1.21-23.68,1.39-35.45,2.93-2.28.3-4.61.14-6.92.2,5.98-25.34,11.96-50.69,17.94-76.03,8.91-1.43,17.92-1.72,26.89-2.43,14.23-1.13,28.44-2.39,42.67-3.54,2.07-.17,4.17-.02,6.26-.03-1.68,9.75-4.39,19.27-6.58,28.9-3.59,15.74-7.33,31.44-11.01,47.16Z"/>
    <path class="cls-2" d="M688.86,598.23c8.1-.76,16.19-1.86,24.31-2.22,17.3-.76,34.48-2.91,51.76-3.81-5.99,25.34-11.99,50.69-17.98,76.04-8.3,1.08-16.64,1.7-24.99,2.35-14.05,1.09-28.09,2.36-42.14,3.49-2.96.24-5.95.16-8.92.23,5.99-25.36,11.97-50.72,17.96-76.08Z"/>
    <path class="cls-2" d="M286.81,705.37c-20.47,1.53-40.95,2.98-61.41,4.64-4.91.4-9.77,1.5-14.75,1.05.05-.54.03-1.1.15-1.63,3.39-14.33,6.81-28.65,10.18-42.98,2.46-10.47,4.84-20.97,7.26-31.45,8.76-.46,17.47-1.53,26.21-2.13,14.46-.98,28.89-2.32,43.33-3.58,2.18-.19,4.39-.13,6.59-.18-.02.44.02.89-.08,1.31-4.15,17.47-8.39,34.92-12.43,52.41-1.73,7.5-4.04,14.87-5.05,22.54Z"/>
    <path class="cls-2" d="M1207.51,631.29c-11.85,1.89-23.85,2.48-35.79,3.29-13.38.9-26.71,3.07-40.19,2.24.29-1.4.55-2.8.88-4.19,5.6-23.71,11.21-47.42,16.82-71.13,2.63-.95,5.44-.84,8.12-.93,12.64-.46,25.2-1.87,37.79-2.91,9.97-.82,19.96-1.16,29.93-1.71-.1.76-.13,1.53-.31,2.27-5.74,24.36-11.5,48.72-17.26,73.07Z"/>
    <path class="cls-2" d="M1034.16,570.64c11.59-.92,23.19-1.8,34.78-2.76,11.6-.96,23.19-2,34.79-3.01,2.08-.18,4.16-.36,6.24.05-.09.87-.09,1.76-.29,2.61-5.79,24.41-11.61,48.81-17.42,73.21-9.76.8-19.55,1.31-29.26,2.48-12.36,1.5-24.83,1.37-37.17,2.94-3.03.39-6.16.07-9.24.08.16-1.08.23-2.18.48-3.23,5.69-24.13,11.39-48.25,17.09-72.37Z"/>
    <path class="cls-2" d="M343.57,625.94c25.21-1.56,50.26-5.31,75.59-5.16-.46,5.07-2.09,9.88-3.23,14.8-4.65,20.05-9.39,40.07-14.11,60.1-8.46,1.56-17.06,1.62-25.6,2.31-14.26,1.15-28.51,2.49-42.77,3.67-2.51.21-5.06.04-7.59.05.12-.98.15-1.97.37-2.93,5.76-24.29,11.55-48.57,17.33-72.85Z"/>
    <path class="cls-2" d="M1264.42,552.36c17.08-1.44,34.14-3,51.25-4.14,8.22-.55,16.39-1.75,24.67-1.58-3.84,16.39-7.74,32.78-11.52,49.19-2.05,8.89-4.66,17.66-6.03,26.71-15.16.88-30.3,2.2-45.44,3.41-10.2.81-20.42,1.21-30.61,2.1.06-.76.02-1.54.19-2.27,5.82-24.47,11.65-48.94,17.49-73.4Z"/>
    <path class="cls-1" d="M1264.42,552.36c-5.83,24.47-11.67,48.93-17.49,73.4-.17.73-.13,1.51-.19,2.27-1.9,1.08-4.04,1.02-6.1,1.09-11.07.39-22.01,2.56-33.13,2.16,5.76-24.36,11.51-48.71,17.26-73.07.17-.74.21-1.51.31-2.27,1.33-1.32,3.09-1.02,4.69-1.15,10.67-.87,21.34-1.68,32.01-2.49.87-.07,1.76.03,2.64.05Z"/>
    <path class="cls-1" d="M1092.26,640.73c5.81-24.4,11.62-48.8,17.42-73.21.2-.84.2-1.74.29-2.61,4.88-1.53,9.99-1.02,14.98-1.62,8.05-.96,16.18-1.24,24.28-1.8-5.61,23.71-11.22,47.42-16.82,71.13-.33,1.39-.59,2.8-.88,4.19-2.31,1.16-4.85,1.37-7.35,1.6-9.65.87-19.31,1.65-28.97,2.43-.98.08-1.97-.07-2.95-.12Z"/>
    <path class="cls-1" d="M113.33,644.55c-5.98,25.34-11.96,50.69-17.94,76.03-5.46.52-10.91,1.11-16.38,1.55-7.57.6-15.14,1.09-22.71,1.63,5.93-25.19,11.86-50.38,17.79-75.56,1.94-1.29,4.19-1.15,6.35-1.34,9.76-.84,19.52-1.62,29.29-2.39,1.19-.09,2.4.05,3.61.09Z"/>
    <path class="cls-1" d="M343.57,625.94c-5.78,24.28-11.57,48.56-17.33,72.85-.23.95-.25,1.95-.37,2.93-1.41,1.17-3.15.89-4.76,1.02-11.43.91-22.86,1.76-34.29,2.63,1.01-7.66,3.31-15.04,5.05-22.54,4.04-17.49,8.28-34.94,12.43-52.41.1-.42.06-.87.08-1.31,13.03-1.45,26.12-2.27,39.2-3.17Z"/>
    <path class="cls-1" d="M1034.16,570.64c-5.7,24.12-11.41,48.24-17.09,72.37-.25,1.06-.32,2.15-.48,3.23-3.27,1.49-6.84,1.21-10.27,1.55-9.61.96-19.25,1.62-28.89,2.4,1.79-10.64,4.78-21.01,7.17-31.51,3.39-14.87,6.94-29.7,10.42-44.55,9.1-1.97,18.41-1.75,27.62-2.58,3.83-.34,7.64-1.16,11.52-.92Z"/>
    <path class="cls-1" d="M746.95,668.24c5.99-25.35,11.99-50.69,17.98-76.04,10.51-.89,21.02-1.8,31.53-2.67,2.41-.2,4.82-.28,7.24-.41-1.95,10.71-4.87,21.21-7.31,31.81-3.37,14.67-6.82,29.32-10.23,43.98-1.18.68-2.49.83-3.8.93-10.93.86-21.86,1.71-32.8,2.54-.86.07-1.74-.09-2.62-.15Z"/>
    <path class="cls-1" d="M228.24,635.01c-2.42,10.48-4.8,20.98-7.26,31.45-3.37,14.33-6.79,28.65-10.18,42.98-.12.52-.1,1.08-.15,1.63-9.59,1.41-19.25,2.09-28.92,2.64-3.4.19-6.79.6-10.18.91,3.68-15.72,7.43-31.42,11.01-47.16,2.2-9.63,4.9-19.15,6.58-28.9,12.96-1.99,26.08-2.15,39.1-3.55Z"/>
    <path class="cls-1" d="M688.86,598.23c-5.99,25.36-11.98,50.72-17.96,76.08-9.2,1.88-18.59,1.58-27.87,2.56-2.84.3-5.67.66-8.51,1-2.89.18-2.38-1.44-1.93-3.33,5.63-23.55,11.2-47.11,16.77-70.67.18-.74.22-1.51.33-2.27,9.75-1.47,19.61-1.79,29.42-2.58,2.72-.22,5.43-.61,8.15-.93,0,0,.02,0,.02,0,.53.05,1.05.11,1.58.16Z"/>
    <path class="cls-1" d="M401.82,695.68c4.71-20.03,9.46-40.05,14.11-60.1,1.14-4.92,2.77-9.73,3.23-14.8.88-.95,2.03-1.26,3.27-1.36,11.51-.88,23.01-1.76,34.52-2.61.53-.04,1.08.15,1.61.24-5.9,24.84-11.79,49.68-17.68,74.53-.1.41-.06.86-.08,1.29-7.33,1.58-14.87.72-22.26,1.92-5.5.9-11.11,1.33-16.72.9Z"/>
    <path class="cls-1" d="M862.17,659c5.7-24.08,11.4-48.16,17.08-72.25.25-1.06.34-2.16.5-3.23.81-.29,1.61-.79,2.44-.86,12.24-.98,24.49-1.9,36.74-2.83-2.82,12.09-5.62,24.18-8.46,36.27-3.14,13.36-6.31,26.72-9.47,40.08-12.39.99-24.78,1.99-37.16,2.98,0,0-.02,0-.02,0-.55-.05-1.1-.1-1.65-.16Z"/>
    <path class="cls-1" d="M573.6,607.42c-3.72,15.93-7.43,31.87-11.16,47.8-2.23,9.52-4.52,19.02-6.78,28.53-12.84,1.03-25.68,2.06-38.53,3.1,1.17-8.39,3.6-16.51,5.5-24.74,3.74-16.17,7.67-32.29,11.5-48.44.2-.84.21-1.73.31-2.6,4.54-1.49,9.29-1.34,13.97-1.72,8.39-.7,16.79-1.29,25.19-1.92Z"/>
    <g>
      <path class="cls-2" d="M56.3,723.76c-2.16.96-4.56.9-6.77.92-8.66.05-17.23,1.22-25.86,1.56.12-24.95.25-49.9.37-74.85,16.7-.77,33.29-3.46,50.06-3.19-5.93,25.19-11.86,50.38-17.79,75.57Z"/>
      <path class="cls-1" d="M1322.79,622.53c1.37-9.05,3.98-17.81,6.03-26.71,3.78-16.41,7.67-32.79,11.52-49.19q9.43-2.43,9.39,6.98c-.1,21.27-.26,42.55-.25,63.82,0,2.6-.8,3.3-3.28,3.43-7.81.42-15.6,1.09-23.4,1.67Z"/>
    </g>
  </g>
  <polygon class="cls-2" points="892.2 678.09 892.13 678.26 892.01 678.1 892.2 678.09"/>
  <path class="cls-2" d="M515.93,685.31l-.19.18s-.23-.13-.23-.13c.13-.16.27-.18.42-.05Z"/>
  <g>
    <path class="cls-1" d="M1331.7,291.85c-3.31-3.31-7.33-5.69-11.05-8.46-9.57-7.13-19.17-14.21-28.89-21.12-2.23-1.59-1.99-2.56-.56-4.48,9.61-12.95,19.11-25.99,28.64-39,.45-.61,1.26-1.05.97-2.02,10.93-2.51,22.08-3.74,33.12-5.65,1.33-.23,2.16-.03,2.3,1.56.24,2.81.6,5.61.91,8.41-7.98,10.77-15.94,21.54-23.94,32.3-.85,1.15-.81,1.87.41,2.75,10.59,7.63,21.15,15.31,31.71,22.98q2.12,7.87-5.78,9.04c-8.05,1.18-15.98,3.13-24.12,3.72-1.23.09-2.47-.02-3.71-.04Z"/>
    <g>
      <path class="cls-2" d="M6.88,417.74c11.07-1.54,22.14-3.09,33.21-4.6,1.65-.23,3.32-.8,5.01-.15-.05,1.11-.83,1.84-1.42,2.64-9.32,12.72-18.54,25.51-28.09,38.05-1.93,2.54-1.04,3.76.76,4.96,10.55,7.07,20.55,14.9,30.83,22.35,3.13,2.27,6.79,3.98,8.97,7.42-12.27,1.94-24.54,3.87-36.8,5.82-.54.09-1.06.34-1.59.52-3.62-25.67-7.25-51.34-10.87-77.01Z"/>
      <path class="cls-2" d="M439.09,429.33c-6.79,2.46-13.99,2.75-21.03,3.8-21.66,3.24-43.34,6.32-65.01,9.46-.93-.81-1.81-1.7-2.8-2.42-11.14-8.18-22.3-16.34-33.45-24.5-5.48-4.01-5.35-3.93-1.35-9.32,9.33-12.56,18.52-25.21,27.75-37.84.48-.65,1.85-1.47-.05-2.13,16.59-2.43,33.19-4.83,49.78-7.31,9.64-1.44,19.25-3.02,28.89-4.47,2-.3,4.01-.8,6.07-.42-.35,1.49-1.48,2.5-2.33,3.66-9.07,12.44-18.13,24.89-27.32,37.24-1.51,2.03-1.4,2.94.7,4.43,8,5.66,15.89,11.48,23.71,17.38,5.49,4.14,11.44,7.67,16.45,12.44Z"/>
      <path class="cls-2" d="M726.74,307.64c16.57-2.5,33.17-4.83,49.71-7.55,11.4-1.87,22.8-3.69,34.32-4.65-3.86,5.33-7.7,10.67-11.59,15.99-6.02,8.24-12.02,16.49-18.13,24.66-1.44,1.92-1.9,3.06.57,4.65,4.28,2.76,8.29,5.94,12.38,8.99,9.14,6.85,18.64,13.23,27.49,20.48-8.73,2.56-17.72,3.72-26.68,5.04-19.66,2.9-39.32,5.74-58.98,8.61-.52-1.1-1.62-1.55-2.52-2.2-12.07-8.87-24.1-17.79-36.28-26.49-2.47-1.76-2.49-2.88-.77-5.18,9.71-12.99,19.29-26.09,28.86-39.19.68-.94,1.93-1.67,1.63-3.15Z"/>
      <path class="cls-2" d="M599.74,327.3c14.26-2.23,28.56-4.24,42.77-6.78,11.08-1.98,22.2-3.67,33.33-5.32,2.37-.35,4.74-.57,7.13-.26.05,1.03-.75,1.61-1.27,2.32-9.38,12.81-18.73,25.64-28.2,38.38-1.48,1.99-1.83,3.05.54,4.7,7.53,5.25,14.93,10.69,22.26,16.22,5.83,4.4,12.07,8.28,17.43,13.31-1.53.39-3.03.9-4.58,1.15-13.75,2.22-27.53,4.27-41.25,6.62-13.06,2.24-26.16,4.23-39.29,6.02-.77-.66-1.49-1.38-2.3-1.98-12.07-8.88-24.07-17.86-36.29-26.54-2.95-2.1-2.99-3.36-.9-6.15,10.34-13.8,20.45-27.79,30.63-41.71Z"/>
      <path class="cls-2" d="M471.64,346.66c25.8-3.88,51.61-7.77,77.41-11.64,2.24-.34,4.51-.53,6.76-.79-1,1.5-1.94,3.03-3.01,4.49-9.05,12.34-18.08,24.7-27.23,36.97-1.35,1.82-1.22,2.67.59,3.96,7.1,5.08,14.13,10.25,21.11,15.49,6.42,4.82,13.18,9.19,19.28,14.44-25.82,4.92-51.87,8.41-77.83,12.47-2.55.4-4.99,1.54-7.66,1.14-13.23-9.77-26.44-19.57-39.74-29.25-1.95-1.42-2-2.27-.6-4.16,9.73-13.06,19.34-26.21,28.95-39.36.83-1.14,2.16-2.08,1.97-3.78Z"/>
      <path class="cls-2" d="M1204.16,311.47c-14.58,3.56-29.51,5.15-44.28,7.66-13.65,2.32-27.37,4.23-41.06,6.32-.52-1.4-1.89-1.91-2.95-2.7-11.5-8.47-23.04-16.9-34.55-25.36q-4.29-3.14-1.28-7.38c.79-1.11,1.55-2.23,2.35-3.33,9.13-12.55,18.26-25.1,27.39-37.65,16.6-2.6,33.21-5.09,49.78-7.83,11.42-1.89,22.78-4.08,34.32-5.13-.43.66-.83,1.34-1.3,1.97-9.26,12.61-18.53,25.22-27.8,37.82q-3.05,4.15,1.21,7.25c8.51,6.22,17.07,12.38,25.52,18.69,4.25,3.17,8.77,6.01,12.64,9.67Z"/>
      <path class="cls-2" d="M310.96,448.79c-7.14,1.85-14.44,2.88-21.72,4.01-21.09,3.26-42.19,6.47-63.29,9.71-.94-.8-1.84-1.66-2.84-2.39-12.15-8.92-24.29-17.86-36.51-26.69-2.09-1.51-2.52-2.68-.76-4.78,2.26-2.69,4.22-5.61,6.29-8.46,8.27-11.36,16.53-22.72,24.79-34.08,27.75-4.52,55.51-8.95,83.42-12.37-.85,1.32-1.63,2.69-2.56,3.95-8.91,12.18-17.75,24.4-26.83,36.44-1.98,2.62-1.43,3.71.95,5.42,12.33,8.89,24.56,17.92,36.79,26.94.85.63,2.14.92,2.26,2.3Z"/>
      <path class="cls-2" d="M982.26,268.39c22.75-4.17,45.7-7,68.55-10.51,4.8-.74,9.55-1.79,14.45-1.7.46,1.38-.7,2.06-1.33,2.92-9.31,12.74-18.6,25.5-28.04,38.14-1.49,1.99-1.24,2.8.69,4.17,7.5,5.32,14.94,10.73,22.25,16.3,5.95,4.53,12.38,8.42,17.9,13.5-8.96,1.53-17.9,3.16-26.88,4.58-19.53,3.1-39.08,6.1-58.63,9.14-.61-1.17-1.77-1.73-2.77-2.45-12.19-8.92-24.37-17.85-36.61-26.7-1.87-1.35-2.52-2.23-.81-4.43,4.95-6.36,9.64-12.93,14.33-19.48,5.61-7.83,11.74-15.3,16.87-23.47Z"/>
      <path class="cls-2" d="M183.6,468.28c-10.06,2.34-20.31,3.64-30.5,5.23-18.27,2.85-36.53,5.7-54.8,8.56-.66-.61-1.27-1.29-1.98-1.82-12.46-9.14-24.9-18.29-37.42-27.34-1.84-1.33-2.55-2.1-.85-4.33,6.82-8.94,13.44-18.03,20.02-27.15,3.77-5.23,7.99-10.15,11.15-15.81,21.85-3.4,43.71-6.76,65.55-10.24,6.03-.96,11.97-2.59,18.16-2.24-.38.68-.69,1.41-1.15,2.04-9.45,12.92-18.85,25.88-28.42,38.71-1.66,2.22-1.75,3.34.63,5.04,11.26,8.07,22.39,16.31,33.55,24.52,2.08,1.53,4.49,2.67,6.07,4.83Z"/>
      <path class="cls-2" d="M1237.14,229.13c10.87-1.61,21.74-3.21,32.61-4.85,14.56-2.2,29.12-4.4,43.67-6.67,2.45-.38,5,.13,7.38-.84.29.96-.53,1.41-.97,2.02-9.53,13.01-19.03,26.05-28.64,39-1.42,1.92-1.67,2.9.56,4.48,9.73,6.9,19.33,13.99,28.89,21.12,3.72,2.77,7.75,5.15,11.05,8.46-10.33,3.3-21.16,3.94-31.76,5.73-17.78,2.99-35.69,5.26-53.54,7.84-13.14-9.67-26.25-19.39-39.47-28.95-2.11-1.53-2.15-2.48-.66-4.48,9.88-13.28,19.64-26.64,29.4-40.01.62-.85,1.82-1.48,1.47-2.86Z"/>
      <path class="cls-2" d="M854.68,287.95c9.78-1.48,19.56-2.94,29.34-4.44,14.72-2.26,29.43-4.57,44.15-6.82,3.36-.51,6.71-1.25,10.15-1.05-.26.5-.45,1.04-.78,1.49-9.4,12.82-18.81,25.64-28.23,38.45-2.69,3.65-2.7,3.64.82,6.22,8.43,6.17,16.91,12.28,25.29,18.52,4.81,3.59,9.9,6.81,14.35,10.89-12.02,1.83-24.03,3.68-36.05,5.5-16.73,2.53-33.47,5.05-50.21,7.57-.86-.72-1.69-1.49-2.6-2.15-12.24-9-24.44-18.04-36.77-26.9-2.17-1.56-2.03-2.47-.58-4.39,7.15-9.52,14.22-19.09,21.18-28.75,3.36-4.67,7.26-8.97,9.94-14.12Z"/>
      <path class="cls-1" d="M949.77,351.2c-4.45-4.07-9.54-7.3-14.35-10.89-8.38-6.24-16.86-12.35-25.29-18.52-3.52-2.57-3.5-2.56-.82-6.22,9.42-12.81,18.83-25.63,28.23-38.45.33-.45.52-.99.78-1.49,5.09-1.66,10.41-2.2,15.66-3.04,9.41-1.5,18.85-2.82,28.28-4.21-5.14,8.17-11.26,15.64-16.88,23.47-4.7,6.55-9.38,13.12-14.33,19.48-1.71,2.2-1.06,3.08.81,4.43,12.24,8.85,24.41,17.79,36.61,26.7,1,.73,2.16,1.28,2.77,2.45-13.78,2.33-27.56,4.74-41.46,6.28Z"/>
      <path class="cls-1" d="M89.21,405.61c-3.15,5.67-7.37,10.58-11.15,15.81-6.58,9.12-13.2,18.21-20.02,27.15-1.7,2.22-.99,2.99.85,4.33,12.52,9.05,24.96,18.21,37.42,27.34.72.53,1.33,1.21,1.98,1.82-11.51,2.35-23.18,3.64-34.77,5.48-2.45.39-4.93.59-7.39.87-2.18-3.44-5.84-5.15-8.97-7.42-10.28-7.45-20.28-15.28-30.83-22.35-1.8-1.21-2.69-2.43-.76-4.96,9.55-12.54,18.77-25.33,28.09-38.05.59-.81,1.38-1.53,1.42-2.64.71-.32,1.4-.81,2.14-.93,13.99-2.17,27.98-4.31,41.97-6.44Z"/>
      <path class="cls-1" d="M1237.14,229.13c.35,1.38-.85,2.01-1.47,2.86-9.76,13.37-19.52,26.73-29.4,40.01-1.49,2-1.45,2.95.66,4.48,13.22,9.56,26.33,19.28,39.47,28.95-13.41,2.1-26.82,4.2-40.24,6.27-.64.1-1.33-.13-1.99-.21-3.88-3.66-8.39-6.49-12.64-9.67-8.45-6.3-17-12.47-25.52-18.69q-4.26-3.11-1.21-7.25c9.27-12.6,18.54-25.21,27.8-37.82.47-.63.87-1.32,1.3-1.97,2.75-1.16,5.73-1.22,8.62-1.67,11.54-1.81,23.09-3.53,34.63-5.28Z"/>
      <path class="cls-1" d="M1076.74,331.2c-5.53-5.08-11.96-8.97-17.9-13.5-7.31-5.57-14.75-10.98-22.25-16.3-1.93-1.37-2.18-2.17-.69-4.17,9.44-12.64,18.73-25.4,28.04-38.14.62-.85,1.79-1.54,1.33-2.92.84-.33,1.64-.85,2.51-.98,14-2.08,28.01-4.11,42.02-6.15-9.13,12.55-18.26,25.1-27.39,37.65-.8,1.1-1.57,2.22-2.35,3.33q-2.99,4.23,1.28,7.38c11.52,8.45,23.05,16.88,34.55,25.36,1.07.78,2.43,1.29,2.95,2.7-13.02,1.9-26.03,3.81-39.05,5.68-.99.14-2.02.05-3.04.06Z"/>
      <path class="cls-1" d="M183.6,468.28c-1.58-2.16-3.99-3.3-6.07-4.83-11.15-8.22-22.29-16.45-33.55-24.52-2.38-1.7-2.29-2.82-.63-5.04,9.57-12.83,18.98-25.79,28.42-38.71.46-.62.77-1.36,1.15-2.04.61-.28,1.2-.72,1.84-.82,14.05-2.09,28.11-4.15,42.16-6.21-8.26,11.36-16.52,22.73-24.79,34.09-2.07,2.84-4.04,5.77-6.29,8.46-1.76,2.09-1.33,3.27.76,4.78,12.22,8.83,24.36,17.77,36.51,26.69.99.73,1.89,1.59,2.84,2.39-13.33,1.96-26.66,3.93-39.99,5.86-.77.11-1.57-.05-2.36-.09Z"/>
      <path class="cls-1" d="M566.56,409.58c-6.1-5.25-12.86-9.62-19.28-14.44-6.98-5.24-14.01-10.42-21.11-15.49-1.81-1.29-1.94-2.15-.59-3.96,9.15-12.27,18.18-24.62,27.23-36.97,1.06-1.45,2.01-2.99,3.01-4.49,8.62-1.95,17.39-2.97,26.11-4.36,5.92-.95,11.88-1.72,17.82-2.57-10.19,13.92-20.29,27.9-30.63,41.71-2.09,2.79-2.05,4.05.9,6.15,12.21,8.68,24.22,17.65,36.29,26.54.81.6,1.54,1.32,2.3,1.98-13.11,2.05-26.22,4.12-39.34,6.13-.86.13-1.79-.13-2.69-.22Z"/>
      <path class="cls-1" d="M854.68,287.95c-2.68,5.15-6.58,9.45-9.94,14.12-6.95,9.66-14.03,19.24-21.18,28.75-1.44,1.92-1.59,2.83.58,4.39,12.34,8.86,24.54,17.91,36.77,26.9.9.66,1.73,1.43,2.6,2.15-13.02,1.87-25.91,4.58-38.99,6.05-1,.11-2.03-.07-3.04-.11-8.85-7.25-18.34-13.63-27.49-20.48-4.08-3.06-8.1-6.23-12.38-8.99-2.46-1.59-2.01-2.72-.57-4.65,6.11-8.17,12.12-16.42,18.13-24.66,3.88-5.31,7.73-10.66,11.59-15.99,3.79-1.71,7.91-1.98,11.93-2.63,10.65-1.71,21.32-3.26,31.98-4.87Z"/>
      <path class="cls-1" d="M471.64,346.66c.2,1.7-1.13,2.64-1.97,3.78-9.61,13.15-19.22,26.3-28.95,39.36-1.4,1.88-1.35,2.74.6,4.16,13.3,9.67,26.5,19.48,39.74,29.25-.5.19-1,.38-1.5.56,0,0-.11-.12-.11-.12l-.05.15c-12.1,1.83-24.19,3.68-36.29,5.48-1.32.2-2.67.64-4.02.06-5.01-4.77-10.97-8.3-16.45-12.45-7.82-5.9-15.71-11.72-23.71-17.38-2.1-1.49-2.22-2.4-.7-4.43,9.19-12.35,18.25-24.8,27.32-37.24.85-1.17,1.99-2.17,2.33-3.66,3.34-1.63,7.04-1.51,10.59-2.11,11.04-1.87,22.11-3.62,33.17-5.41Z"/>
      <path class="cls-1" d="M310.96,448.79c-.12-1.38-1.41-1.67-2.26-2.3-12.24-9.02-24.46-18.05-36.79-26.94-2.38-1.71-2.92-2.8-.95-5.42,9.09-12.04,17.93-24.27,26.83-36.44.93-1.27,1.71-2.63,2.56-3.95,7.84-2.38,16.02-2.86,24.02-4.32,6.24-1.13,12.52-2.04,18.78-3.04,1.9.66.53,1.48.05,2.13-9.23,12.63-18.43,25.28-27.75,37.84-4,5.39-4.13,5.31,1.35,9.32,11.15,8.17,22.31,16.32,33.45,24.5.99.73,1.87,1.61,2.8,2.42-14.04,2.02-27.87,5.43-42.09,6.2Z"/>
      <path class="cls-1" d="M693.72,389.88c-5.36-5.03-11.59-8.91-17.43-13.31-7.33-5.53-14.73-10.98-22.26-16.22-2.37-1.65-2.02-2.71-.54-4.7,9.47-12.74,18.83-25.57,28.2-38.38.52-.71,1.32-1.29,1.27-2.32,5.79-2.22,11.99-2.36,18.01-3.41,7.6-1.33,15.25-2.39,22.86-3.56.34-.05.69-.11,1.04-.16.62-.05,1.24-.1,1.86-.15.3,1.48-.94,2.22-1.63,3.15-9.58,13.1-19.15,26.19-28.86,39.19-1.72,2.3-1.69,3.42.77,5.18,12.18,8.7,24.22,17.62,36.28,26.49.89.66,2,1.11,2.52,2.2-3.09,1.23-6.39,1.3-9.61,1.8-9.37,1.47-18.76,2.81-28.14,4.19-1.45.21-2.9.51-4.36.03Z"/>
      <path class="cls-2" d="M1365.31,279.13c-10.57-7.67-21.12-15.35-31.71-22.98-1.22-.88-1.27-1.61-.41-2.75,8-10.75,15.97-21.53,23.94-32.3,2.03,10.15,3.12,20.44,4.57,30.67,1.29,9.11,2.93,18.17,3.61,27.36Z"/>
    </g>
  </g>
  <g>
    <path class="cls-2" d="M1372.36,295.34c-6.71-1.02-13.41-2.04-20.12-3.06-2.46-15.69-5-31.38-7.36-47.09-1.66-11.06-3.83-22.05-4.96-33.19,9.9,1.42,19.8,2.87,29.71,4.25,1.23.17,2.5.04,3.75.05-.34,26.35-.68,52.69-1.02,79.04Z"/>
    <path class="cls-2" d="M1075.67,248.49c-15.45-2.38-30.9-4.72-46.34-7.16-10.82-1.71-21.62-3.55-32.43-5.33,0-.8.09-1.61-.03-2.38-3.04-19.29-6.19-38.57-9.11-57.88-1.01-6.64-2.65-13.21-2.65-19.99,11.27,1.68,22.57,3.23,33.81,5.09,14.72,2.43,29.41,5.06,44.22,7,.38,6.06,1.68,11.99,2.62,17.97,3.26,20.9,6.6,41.79,9.91,62.68Z"/>
    <path class="cls-2" d="M393.08,62.03c6.67.88,13.36,1.65,20.01,2.66,18.18,2.73,36.21,6.34,54.46,8.63,1.24.16,2.46.52,3.69.78,2.58,16.6,5.21,33.18,7.71,49.79,1.53,10.15,3.58,20.22,4.49,30.46-5.63-.75-11.33-1.21-16.89-2.31-9.41-1.87-18.98-2.65-28.41-4.29-10.88-1.89-21.76-3.8-32.63-5.7-1.16-7.35-2.34-14.69-3.47-22.04-2.99-19.32-5.96-38.65-8.95-57.98Z"/>
    <path class="cls-2" d="M1221.54,193.21c13.6,1.76,27.09,4.22,40.63,6.27,11.85,1.8,23.72,3.49,35.54,5.53.66.11,1.39.04,1.88.66,3.06,19.38,6.21,38.74,9.15,58.14,1.09,7.2,2.75,14.32,3.07,21.63-11.69-1.26-23.29-3.04-34.84-5.23-8.17-1.55-16.48-2.36-24.71-3.6-6.18-.93-12.34-2.03-18.51-3.05-2.01-13.22-4.03-26.45-6.04-39.67-2.06-13.56-4.11-27.12-6.16-40.69Z"/>
    <path class="cls-2" d="M956.92,229.38c-5.66-.77-11.33-1.48-16.98-2.33-9.38-1.4-18.75-2.86-28.12-4.34-11.06-1.75-22.11-3.56-33.16-5.34-1.93-12.78-3.85-25.55-5.78-38.32-2.12-14.02-4.26-28.03-6.39-42.05,13.92,1.8,27.78,3.92,41.62,6.29,12.13,2.07,24.29,3.93,36.44,5.89,2.27,14.32,4.59,28.64,6.8,42.97,1.92,12.4,3.72,24.83,5.57,37.24Z"/>
    <path class="cls-2" d="M601.72,173.09c-13.72-2.07-27.44-4.11-41.15-6.21-12.38-1.9-24.74-3.86-37.12-5.79,0-.91.13-1.84,0-2.72-2.81-17.98-5.72-35.93-8.44-53.92-1.19-7.9-3.02-15.71-3.38-23.73,12.29,1.91,24.57,3.84,36.86,5.72,7.45,1.14,14.99,1.82,22.33,3.43,6.27,1.37,12.64,1.76,18.91,2.96.05.91.02,1.84.17,2.73,2.81,17.83,5.7,35.65,8.42,53.5,1.22,8,3,15.93,3.41,24.04Z"/>
    <path class="cls-2" d="M1193.66,266.94c-12.54-1.82-25.05-3.76-37.57-5.74-12.73-2.01-25.39-4.58-38.26-5.71-.79-.07-1.62-.07-2.22-.72-2.3-14.57-4.62-29.14-6.88-43.72-1.9-12.2-3.72-24.41-5.58-36.62,10.05,1.48,20.11,2.95,30.16,4.46,6.33.95,12.65,1.97,18.96,2.99,9.69,1.56,19.37,3.15,29.06,4.72,1.37,8.93,2.74,17.85,4.11,26.78,2.74,17.85,5.48,35.71,8.23,53.56Z"/>
    <path class="cls-2" d="M156.37,24.54c17.01,2.54,34.02,5.03,51.01,7.64,8.99,1.38,17.96,2.97,26.93,4.47.18.78.41,1.55.53,2.34,2.6,16.59,5.21,33.17,7.77,49.77,1.43,9.24,2.76,18.49,4.13,27.74-18.41-1.76-36.57-5.26-54.84-7.97-7.77-1.15-15.5-2.59-23.24-3.89-.51-3.49-1.01-6.99-1.54-10.48-3.58-23.21-7.17-46.41-10.76-69.62Z"/>
    <path class="cls-2" d="M128.24,97.74c-8.3-.58-16.46-2.26-24.68-3.38-11.85-1.61-23.58-3.92-35.47-5.31-5.92-.7-11.97-1.38-17.75-3.22-2.99-19.22-6.02-38.44-8.94-57.67-1.13-7.45-2.75-14.84-3.22-22.38,12.35,1.38,24.56,3.68,36.83,5.61,12.5,1.96,25.01,3.85,37.51,5.79,1.24.19,2.44.55,3.67.83,3.12,19.94,6.3,39.86,9.31,59.82,1,6.62,2.68,13.16,2.74,19.92Z"/>
    <path class="cls-2" d="M838.37,210.48c-9.83-1.42-19.68-2.76-29.5-4.28-15.35-2.38-30.69-4.89-46.03-7.34-1.23-.2-2.46-.36-3.7-.54,1.82-.37,1.12-1.74.97-2.73-1.71-11.05-3.5-22.08-5.21-33.13-2.3-14.77-4.55-29.54-6.82-44.31,26.11,4.05,52.21,8.09,78.32,12.14.05.8.05,1.6.17,2.39,2.85,18.16,5.79,36.3,8.53,54.47,1.17,7.76,2.93,15.45,3.28,23.33Z"/>
    <path class="cls-2" d="M274.94,43.33c6.66.87,13.33,1.65,19.97,2.63,8.68,1.29,17.38,2.51,25.98,4.19,10.62,2.08,21.4,3.12,32.03,5.17,3.11,20,6.27,39.99,9.29,60,1,6.64,2.61,13.21,2.7,19.98-17.29-2.16-34.47-4.98-51.64-7.9-8.75-1.49-17.59-2.47-26.3-4.24-2.92-18.83-5.91-37.65-8.72-56.5-1.16-7.77-2.94-15.45-3.31-23.33Z"/>
    <path class="cls-2" d="M629.74,99.48c15,1.52,29.72,4.81,44.65,6.81,11.19,1.5,22.31,3.59,33.46,5.42,1.8,11.4,3.62,22.81,5.39,34.22,2.38,15.36,4.72,30.73,7.08,46.09-11.29-1.51-22.51-3.45-33.73-5.39-8.52-1.47-17.16-2.3-25.68-3.75-6.27-1.07-12.62-1.84-18.77-3.61-4.14-26.6-8.27-53.2-12.41-79.8Z"/>
    <path class="cls-1" d="M364.91,135.31c-.09-6.77-1.7-13.34-2.7-19.98-3.02-20.01-6.19-40-9.29-60,13.11,2.05,26.23,4.1,39.34,6.16.3.05.55.35.83.54,2.98,19.33,5.95,38.65,8.95,57.98,1.14,7.35,2.31,14.69,3.47,22.04-9.86-.95-19.62-2.65-29.33-4.51-3.75-.72-7.79-.15-11.26-2.23Z"/>
    <path class="cls-1" d="M1193.66,266.94c-2.74-17.85-5.48-35.71-8.23-53.56-1.37-8.93-2.74-17.85-4.11-26.78,12.75,1.99,25.51,3.98,38.26,5.99.67.11,1.3.42,1.95.63,2.05,13.56,4.1,27.12,6.16,40.69,2.01,13.22,4.03,26.45,6.04,39.67-13.06-2.05-26.13-4.1-39.18-6.16-.32-.05-.6-.31-.9-.47Z"/>
    <path class="cls-1" d="M511.62,80.71c.36,8.02,2.19,15.83,3.38,23.73,2.72,17.99,5.63,35.95,8.44,53.92.14.89,0,1.82,0,2.72-12.49-1.97-24.98-3.93-37.46-5.89-.9-.14-1.83-.18-2.54-.85-.91-10.24-2.96-20.31-4.49-30.46-2.5-16.61-5.13-33.19-7.71-49.79,11.15,1.82,22.32,3.58,33.45,5.49,2.31.4,4.76-.13,6.93,1.12Z"/>
    <path class="cls-1" d="M838.37,210.48c-.35-7.88-2.11-15.57-3.28-23.33-2.74-18.17-5.68-36.32-8.53-54.47-.12-.79-.11-1.59-.17-2.39,12.96,2.03,25.92,4.06,38.88,6.12.42.07.81.38,1.21.59,2.13,14.02,4.27,28.03,6.4,42.05,1.94,12.77,3.86,25.55,5.78,38.32-7.3-1.19-14.6-2.34-21.89-3.57-6.15-1.04-12.35-1.75-18.4-3.32Z"/>
    <path class="cls-1" d="M720.32,192.02c-2.36-15.37-4.7-30.73-7.08-46.09-1.77-11.41-3.59-22.81-5.39-34.22,11.06,1.74,22.14,3.41,33.18,5.27,2.35.4,4.85-.07,7.05,1.16,2.27,14.77,4.52,29.55,6.82,44.31,1.72,11.05,3.51,22.08,5.21,33.13.15.99.85,2.36-.97,2.73-12.17-1.89-24.35-3.77-36.52-5.68-.78-.12-1.54-.41-2.3-.62Z"/>
    <path class="cls-1" d="M274.94,43.33c.38,7.88,2.15,15.57,3.31,23.33,2.81,18.85,5.8,37.67,8.72,56.5-9.77-.79-19.39-2.63-29.01-4.35-3.73-.67-7.79-.06-11.2-2.31-1.38-9.25-2.71-18.5-4.13-27.74-2.56-16.59-5.17-33.18-7.77-49.77-.12-.79-.35-1.56-.53-2.34,6.64,1.04,13.27,2.1,19.91,3.11,6.55.99,13.1,1.94,19.65,2.89.48.07.87.19,1.06.68Z"/>
    <path class="cls-1" d="M128.24,97.74c-.07-6.75-1.74-13.29-2.74-19.92-3.01-19.95-6.19-39.88-9.31-59.82,13.11,2,26.21,4,39.31,6.02.31.05.58.33.87.51,3.59,23.21,7.18,46.41,10.76,69.62.54,3.49,1.03,6.98,1.54,10.48-10.55-1.63-21.11-3.16-31.63-4.97-2.94-.51-6.16,0-8.8-1.92Z"/>
    <path class="cls-1" d="M1311.8,285.44c-.32-7.31-1.98-14.43-3.07-21.63-2.94-19.4-6.08-38.76-9.15-58.14,2.66-.44,5.18.57,7.72.96,10.89,1.64,21.84,2.98,32.62,5.37,1.13,11.14,3.3,22.13,4.96,33.2,2.36,15.71,4.9,31.39,7.36,47.09-12.87-2-25.74-3.99-38.6-6.02-.64-.1-1.23-.54-1.84-.82Z"/>
    <path class="cls-1" d="M629.74,99.48c4.14,26.6,8.27,53.2,12.41,79.8-10.93-.7-21.63-2.96-32.41-4.7-2.67-.43-5.5-.19-8.02-1.48-.41-8.12-2.2-16.04-3.41-24.04-2.72-17.85-5.61-35.67-8.42-53.5-.14-.9-.11-1.82-.17-2.73,10.01,1.61,20.05,3.09,30.03,4.89,3.33.6,6.79.46,9.99,1.77Z"/>
    <path class="cls-1" d="M956.92,229.38c-1.85-12.41-3.66-24.84-5.57-37.24-2.21-14.33-4.53-28.65-6.8-42.97,13.54,2.11,27.13,3.81,40.56,6.58,0,6.78,1.64,13.35,2.65,19.99,2.92,19.31,6.07,38.59,9.11,57.88.12.78.02,1.59.03,2.38-12.24-1.93-24.48-3.85-36.73-5.78-1.11-.17-2.3-.07-3.25-.85Z"/>
    <path class="cls-1" d="M1103.14,174.42c1.86,12.21,3.69,24.42,5.58,36.62,2.26,14.58,4.59,29.15,6.88,43.72-13.31-2.09-26.62-4.18-39.93-6.28-3.31-20.9-6.65-41.79-9.91-62.69-.93-5.98-2.23-11.91-2.62-17.97,12.57,1.97,25.15,3.93,37.72,5.92.77.12,1.52.44,2.27.67Z"/>
    <path class="cls-1" d="M38.19,5.78c.47,7.55,2.1,14.93,3.22,22.38,2.91,19.23,5.95,38.45,8.94,57.67-10.32-1.19-20.57-2.83-30.75-4.87-3.19-.64-6.71.19-9.57-1.99C7.62,59.96,4.39,41.07,1.27,22.16c-.94-6.58-.21-13.18-.3-19.77C.96,1.14.75-.25,2.82.04c11.84,1.63,23.68,3.2,35.37,5.75Z"/>
    <path class="cls-2" d="M1.27,22.16c3.12,18.91,6.34,37.8,8.76,56.82-2.69-.5-5.4-.92-8.12-.48-1.35.22-1.94-.12-1.91-1.52.42-18.17.01-36.37,1.1-54.53,0-.1.11-.2.17-.29Z"/>
    <path class="cls-2" d="M728.24,226.81c-.33.14-.65.29-.97.43.33-.14.65-.29.97-.43Z"/>
  </g>
  <polygon class="cls-2" points="472.85 477.17 472.88 477.02 473.01 477.12 472.95 477.25 472.85 477.17"/>
  <g>
    <path class="cls-1" d="M31.65,413.95c12.81,1.32,25.61,2.63,38.41,4,1.07.11,2.1.58,3.14.88.62.88,1.19,1.81,1.87,2.64,9.63,11.74,19.23,23.51,28.97,35.16,1.69,2.02,1.47,3.04-.52,4.6-5.89,4.61-11.66,9.39-17.4,14.19-6.57,5.49-13.44,10.63-19.66,16.54-.98.12-1.97.42-2.93.32-12.71-1.25-25.42-2.56-38.12-3.86.57-1.14,1.64-1.75,2.57-2.52,11.4-9.37,22.78-18.77,34.25-28.07,1.67-1.35,1.79-2.17.41-3.83-7.7-9.21-15.24-18.55-22.91-27.78-2.72-3.27-4.98-6.97-8.39-9.65.1-.88.21-1.75.31-2.63Z"/>
    <path class="cls-2" d="M31.34,416.58c3.41,2.69,5.66,6.38,8.39,9.65,7.68,9.23,15.22,18.57,22.91,27.78,1.38,1.66,1.26,2.48-.41,3.83-11.47,9.29-22.84,18.7-34.25,28.07-.93.76-2.01,1.38-2.57,2.52-.85-.05-1.7-.09-2.54-.14,2.82-23.9,5.65-47.8,8.47-71.71Z"/>
    <path class="cls-2" d="M773.59,562.11c-22.18-2.54-44.5-3.55-66.67-6.25-5.87-.72-11.83-.76-17.67-1.98.98-.88,1.93-1.79,2.95-2.63,11.59-9.52,23.16-19.05,34.81-28.5,1.86-1.51,2.45-2.53.61-4.64-4.99-5.74-9.79-11.65-14.54-17.59-5.5-6.88-11.48-13.36-16.55-20.59,27.31,2,54.57,4.57,81.78,7.62.39,1.46,1.52,2.41,2.41,3.51,9.84,12.03,19.64,24.1,29.65,35.99,2.01,2.39,1.64,3.38-.59,5.2-12.15,9.86-24.16,19.89-36.21,29.87Z"/>
    <path class="cls-2" d="M571.8,467.43c1.21.05,2.42.03,3.62.15,15.68,1.59,31.36,3.23,47.04,4.78,10.41,1.03,20.84,1.96,31.26,2.93.13,1.45,1.3,2.25,2.11,3.24,10.05,12.28,20.1,24.56,30.24,36.76,1.47,1.76,1.42,2.72-.4,4.16-6.29,5.01-12.45,10.18-18.67,15.29-5.36,4.4-10.75,8.78-16.08,13.22-.58.48-2.59,1.09-.29,2.11-16.69-1.38-33.36-2.94-50.02-4.71-11.84-1.25-23.7-2.29-35.49-3.98.95-1.69,2.6-2.66,4.04-3.83,11.07-9.11,22.12-18.24,33.29-27.24,1.91-1.54,2.11-2.47.5-4.38-7.16-8.53-14.23-17.14-21.2-25.83-3.36-4.19-7.27-7.95-9.94-12.68Z"/>
    <path class="cls-2" d="M898.65,574.46c-21.64-1.77-43.16-4.88-64.85-6.08-6.48-.36-12.97-1.02-19.35-2.34.44-1.37,1.74-1.92,2.73-2.73,11.51-9.46,23.03-18.9,34.6-28.28,1.85-1.5,2.37-2.49.55-4.64-7.57-8.91-14.98-17.96-22.31-27.07-2.87-3.57-6.31-6.72-8.38-10.91,8.86-.61,17.54,1.27,26.31,1.92,15.83,1.16,31.58,3.13,47.35,4.85,2.62.29,5.29.09,7.88.74-.01,1.39,1.16,2.06,1.89,2.96,10.11,12.36,20.22,24.73,30.42,37.03,1.45,1.75,1.41,2.67-.42,4.13-7.75,6.19-15.42,12.47-23,18.87-4.51,3.81-9.52,7.05-13.43,11.57Z"/>
    <path class="cls-2" d="M197.96,431.14c27.26,1.56,54.41,4.35,81.53,7.41.63.89,1.2,1.82,1.89,2.66,10.12,12.36,20.27,24.7,30.39,37.06.98,1.2,2.42,2.17.23,3.92-9.29,7.42-18.48,14.96-27.59,22.6-3.27,2.74-6.97,4.99-9.64,8.42-19.93-2.08-39.84-4.29-59.79-6.17-7.89-.74-15.79-1.2-23.52-3.07.86-.83,1.67-1.74,2.6-2.5,11.5-9.45,22.99-18.91,34.56-28.27,1.69-1.37,1.88-2.22.42-3.88-3.06-3.47-5.96-7.09-8.85-10.7-7.36-9.2-15.23-17.99-22.23-27.48Z"/>
    <path class="cls-2" d="M447.1,455.3c8.42-.42,16.66,1.29,24.98,2.1,18.96,1.84,37.91,3.85,56.86,5.8.35.54.65,1.12,1.06,1.62,10.38,12.69,20.74,25.41,31.21,38.03,1.5,1.81,1.8,2.83-.32,4.38-3.46,2.54-6.66,5.41-9.98,8.14-8.34,6.84-16.7,13.65-25.01,20.53-.55.45-2.57.86-.63,2.19-23.44-2.49-46.89-4.93-70.32-7.5-4.68-.51-9.5-.05-14-1.91.38-1.43,1.73-1.93,2.71-2.74,11.39-9.39,22.77-18.79,34.25-28.07,1.83-1.48,1.89-2.36.41-4.1-4.29-5.02-8.44-10.18-12.58-15.33-6.21-7.72-12.9-15.04-18.64-23.14Z"/>
    <path class="cls-2" d="M1195.48,529.11c10.39-.17,20.6,1.66,30.89,2.7,16.98,1.71,33.94,3.5,50.92,5.25.64.89,1.22,1.81,1.91,2.66,10.14,12.38,20.26,24.77,30.49,37.08,1.46,1.76,1.48,2.66-.4,4.13-5.74,4.48-11.34,9.15-16.92,13.83-6.58,5.51-13.52,10.6-19.75,16.54-24.77-1.85-49.44-4.64-74.11-7.49-3.18-.37-6.33-.91-9.5-1.37.53-.54,1.02-1.13,1.61-1.61,11.76-9.66,23.5-19.35,35.34-28.9,1.97-1.59,2.23-2.6.53-4.59-5.72-6.72-11.32-13.53-16.82-20.42-4.74-5.93-9.98-11.45-14.18-17.8Z"/>
    <path class="cls-2" d="M66.47,491.96c6.22-5.91,13.09-11.05,19.66-16.54,5.74-4.8,11.51-9.58,17.4-14.19,2-1.56,2.21-2.58.52-4.6-9.74-11.65-19.34-23.42-28.97-35.16-.68-.83-1.26-1.76-1.87-2.64,6.73-.22,13.39.62,20.05,1.27,19.53,1.92,39.1,3.43,58.57,5.94,1.08.14,2.19.12,3.28.18-.21,1.33.91,1.91,1.57,2.72,10.2,12.48,20.39,24.96,30.67,37.36,1.37,1.66,1.34,2.53-.38,3.88-5.29,4.16-10.52,8.41-15.64,12.77-7.02,5.98-14.61,11.28-21.24,17.74-20.26-1.95-40.51-3.93-60.77-5.83-7.65-.72-15.39-.68-22.85-2.89Z"/>
    <path class="cls-2" d="M1147.63,599.12c-20.81-1.46-41.47-4.41-62.21-6.5-7.02-.71-14.09-.88-21-2.44.27-1.22,1.42-1.61,2.23-2.28,11.55-9.53,23.09-19.07,34.73-28.48,1.86-1.5,2.12-2.3.49-4.25-8.42-10.03-16.7-20.18-24.93-30.38-2.05-2.54-4.6-4.71-6-7.76,3.19.08,6.39-.04,9.56.28,24.03,2.45,48.05,4.98,72.08,7.49.36.54.69,1.12,1.1,1.63,9.37,11.44,18.76,22.86,28.13,34.3,1.6,1.95,4.45,4.13,4.26,5.94-.19,1.84-3.4,3.4-5.35,5.02-11.02,9.15-22.06,18.29-33.09,27.43Z"/>
    <path class="cls-2" d="M322.77,443.3c3.75-.18,7.47.01,11.2.41,23.45,2.5,46.91,4.98,70.37,7.46.57.8,1.11,1.64,1.73,2.4,9.92,12.07,19.89,24.1,29.77,36.21,3.24,3.97,2.91,2.93-.67,5.89-7.88,6.53-15.85,12.95-23.72,19.5-4.04,3.36-8.4,6.37-12.01,10.24-18.58-1.14-36.99-3.97-55.5-5.76-7.45-.72-14.9-1.39-22.35-2.16-1.85-.19-3.67-.64-5.5-.97.72-1.6,2.24-2.4,3.5-3.43,11.22-9.21,22.43-18.42,33.73-27.53,1.92-1.55,1.59-2.6.22-4.24-6.94-8.29-13.87-16.6-20.64-25.04-3.43-4.28-7.42-8.12-10.13-12.97Z"/>
    <path class="cls-2" d="M946.6,505.23c4.72-.75,9.39.06,14.07.5,22.44,2.12,44.92,3.9,67.31,6.66.58,1.73,1.91,2.95,3.01,4.3,9.58,11.67,19.13,23.36,28.82,34.93,1.77,2.12,1.98,3.19-.42,5.11-11.45,9.15-22.71,18.54-34.02,27.87-.82.67-1.99,1.07-2.13,2.36-22.6-2.37-45.18-4.84-67.8-7.05-5.27-.52-10.53-.93-15.7-2.09.51-1.19,1.64-1.74,2.56-2.5,11.41-9.39,22.79-18.82,34.29-28.1,2.07-1.67,2.02-2.65.37-4.58-5.94-6.96-11.75-14.03-17.47-21.17-4.33-5.4-9.05-10.48-12.91-16.25Z"/>
    <path class="cls-1" d="M946.6,505.23c3.86,5.77,8.58,10.85,12.91,16.25,5.72,7.14,11.53,14.21,17.47,21.17,1.65,1.93,1.7,2.91-.37,4.58-11.51,9.27-22.89,18.7-34.29,28.1-.92.76-2.06,1.31-2.56,2.5-2.92,1.05-5.9.37-8.82.09-10.4-.97-20.79-2.09-31.18-3.15,0,0-.11-.02-.11-.02-.33-.09-.66-.19-1-.28,3.9-4.52,8.91-7.76,13.43-11.57,7.58-6.39,15.25-12.68,23-18.87,1.83-1.46,1.87-2.38.42-4.13-10.2-12.29-20.31-24.66-30.42-37.03-.74-.9-1.9-1.56-1.89-2.96.4.01.8.03,1.2.04,0,0,.1.17.1.17l.09-.16c12.5,1.23,24.99,2.44,37.49,3.69,1.62.16,3.35.12,4.54,1.57Z"/>
    <path class="cls-1" d="M525.27,538.07c-1.94-1.32.08-1.73.63-2.19,8.31-6.88,16.67-13.69,25.01-20.53,3.32-2.72,6.52-5.6,9.98-8.14,2.12-1.55,1.82-2.57.32-4.38-10.47-12.62-20.83-25.34-31.21-38.03-.41-.5-.71-1.08-1.06-1.62.23-.06.46-.13.69-.19,0,0,.22.16.22.16l.21-.16c13.06,1.29,26.12,2.57,39.17,3.87.87.09,1.72.36,2.58.54,2.67,4.73,6.58,8.5,9.94,12.69,6.97,8.68,14.04,17.29,21.2,25.83,1.61,1.91,1.41,2.85-.5,4.38-11.16,8.99-22.22,18.12-33.29,27.24-1.43,1.18-3.09,2.14-4.04,3.83-9.88-.83-19.75-1.66-29.63-2.48-3.41-.28-6.81-.56-10.22-.83Z"/>
    <path class="cls-1" d="M821.64,492.41c2.08,4.18,5.51,7.34,8.38,10.91,7.33,9.11,14.74,18.17,22.31,27.07,1.82,2.14,1.3,3.14-.55,4.64-11.57,9.38-23.09,18.83-34.6,28.28-.99.81-2.29,1.36-2.73,2.73-13.66-.9-27.25-2.47-40.86-3.93,12.06-9.97,24.06-20.01,36.21-29.87,2.23-1.81,2.6-2.81.59-5.2-10.02-11.88-19.81-23.95-29.65-35.99-.89-1.09-2.03-2.05-2.41-3.51,13.71,1.39,27.42,2.78,41.12,4.2.75.08,1.47.43,2.2.66Z"/>
    <path class="cls-1" d="M399.45,525.41c3.61-3.87,7.96-6.88,12.01-10.24,7.87-6.54,15.84-12.97,23.72-19.5,3.58-2.97,3.91-1.93.67-5.89-9.88-12.1-19.85-24.14-29.77-36.21-.63-.76-1.16-1.6-1.73-2.4,8.79-.08,17.46,1.34,26.18,2.06,5.54.46,11.17.51,16.58,2.06,5.73,8.1,12.43,15.42,18.64,23.14,4.14,5.15,8.28,10.3,12.58,15.33,1.49,1.74,1.43,2.62-.41,4.1-11.48,9.27-22.86,18.67-34.25,28.07-.98.81-2.33,1.31-2.71,2.74-1.98.62-3.95.1-5.91-.07-11.87-1.02-23.73-2.12-35.59-3.19Z"/>
    <path class="cls-1" d="M1147.63,599.12c11.03-9.14,22.07-18.27,33.09-27.43,1.95-1.62,5.15-3.18,5.35-5.02.19-1.82-2.67-3.99-4.26-5.94-9.37-11.44-18.76-22.86-28.13-34.3-.41-.5-.73-1.08-1.1-1.63,8.69.17,17.3,1.42,25.94,2.2,5.67.51,11.42.55,16.97,2.11,4.2,6.35,9.45,11.88,14.18,17.8,5.51,6.89,11.11,13.71,16.82,20.42,1.7,2,1.44,3.01-.53,4.59-11.84,9.55-23.58,19.24-35.34,28.9-.58.48-1.07,1.07-1.61,1.61-6.4.25-12.7-.76-19.04-1.34-7.44-.68-14.89-1.32-22.34-1.98Z"/>
    <path class="cls-1" d="M650.64,550.07c-2.29-1.02-.29-1.63.29-2.11,5.33-4.44,10.72-8.82,16.08-13.22,6.22-5.1,12.37-10.28,18.67-15.29,1.82-1.44,1.86-2.4.4-4.16-10.15-12.2-20.2-24.48-30.24-36.76-.81-.99-1.98-1.79-2.11-3.24,14.3,1.33,28.62,2.41,42.81,4.65,5.06,7.23,11.05,13.71,16.55,20.59,4.75,5.94,9.55,11.85,14.54,17.59,1.84,2.11,1.24,3.14-.61,4.64-11.65,9.45-23.22,18.98-34.81,28.5-1.02.84-1.97,1.75-2.95,2.63-9.31-.45-18.53-1.86-27.8-2.77-3.6-.36-7.21-.69-10.81-1.04Z"/>
    <path class="cls-1" d="M1023.25,586.96c.14-1.29,1.32-1.69,2.13-2.36,11.31-9.32,22.57-18.71,34.02-27.87,2.4-1.92,2.19-2.99.42-5.11-9.69-11.58-19.25-23.26-28.82-34.93-1.11-1.35-2.44-2.57-3.01-4.3,13.38,1.28,26.75,2.57,40.13,3.85.99.09,1.98.18,2.83.79,1.4,3.05,3.95,5.22,6,7.76,8.22,10.2,16.51,20.35,24.93,30.38,1.64,1.95,1.37,2.75-.49,4.25-11.64,9.41-23.18,18.95-34.73,28.48-.81.67-1.96,1.06-2.23,2.28-2.42,0-4.85.17-7.25-.04-11.31-1-22.62-2.11-33.92-3.18Z"/>
    <path class="cls-1" d="M322.77,443.3c2.7,4.84,6.7,8.69,10.13,12.97,6.77,8.43,13.7,16.74,20.64,25.04,1.38,1.64,1.7,2.7-.22,4.24-11.3,9.11-22.51,18.32-33.73,27.53-1.26,1.03-2.78,1.84-3.5,3.43-4.85.48-9.64-.21-14.44-.68-8.96-.87-17.92-1.75-26.89-2.63,2.67-3.43,6.38-5.68,9.64-8.42,9.11-7.64,18.3-15.18,27.59-22.6,2.19-1.75.75-2.72-.23-3.92-10.12-12.36-20.27-24.7-30.39-37.06-.69-.84-1.26-1.77-1.89-2.66,13.6,1.29,27.2,2.57,40.8,3.9.85.08,1.65.55,2.48.84Z"/>
    <path class="cls-1" d="M150.09,500.68c6.62-6.46,14.22-11.76,21.24-17.74,5.12-4.37,10.35-8.62,15.64-12.77,1.71-1.35,1.75-2.22.38-3.88-10.28-12.41-20.47-24.89-30.67-37.36-.66-.81-1.78-1.39-1.57-2.72,13.12,1.35,26.24,2.68,39.36,4.06,1.18.12,2.33.57,3.5.87,7,9.5,14.87,18.28,22.23,27.48,2.89,3.61,5.78,7.24,8.85,10.7,1.47,1.66,1.28,2.52-.42,3.88-11.57,9.35-23.06,18.82-34.56,28.27-.93.76-1.74,1.66-2.6,2.5-3.61,1.12-7.23.22-10.81-.11-10.2-.95-20.37-2.11-30.56-3.18Z"/>
    <path class="cls-1" d="M1272.61,611.3c6.23-5.94,13.17-11.03,19.75-16.54,5.59-4.68,11.19-9.34,16.92-13.83,1.88-1.47,1.86-2.37.4-4.13-10.22-12.31-20.35-24.71-30.49-37.08-.69-.84-1.28-1.77-1.91-2.66,13.83.73,27.57,2.45,41.35,3.72.52.05,1.01.38,1.51.58,8.43,11.4,17.74,22.07,26.8,32.96-.39,4.9-.77,9.8-1.83,14.62-10.89,8.45-21.53,17.2-31.97,26.19-10.23-.28-20.34-1.78-30.51-2.69-2.41-.22-4.82-.37-7.22-.55-.39-.06-.78-.12-1.18-.17-.54-.14-1.08-.28-1.63-.43Z"/>
    <path class="cls-2" d="M1346.95,574.32c-9.05-10.89-18.37-21.56-26.8-32.96,2.31-.59,4.59,0,6.86.24,7.23.75,14.43,1.69,21.67,2.37,1.68.16,1.97.66,1.78,2.17-1.21,9.39-2.35,18.78-3.51,28.17Z"/>
    <path class="cls-2" d="M1313.15,615.13c10.44-8.99,21.08-17.74,31.97-26.19-.51,9.23-2.04,18.35-2.98,27.53-.2,1.99-1.41,1.87-2.79,1.71-8.73-1.02-17.47-2.03-26.2-3.05Z"/>
  </g>
  <path class="cls-2" d="M1261.76,726.06c.39.06.79.12,1.18.17-.4-.06-.79-.12-1.18-.17Z"/>
  <polygon class="cls-2" points="887.17 689.08 887.28 689.1 887.2 689.24 887.17 689.08"/>
  <polygon class="cls-2" points="676.75 685.19 676.72 685.2 676.7 685.06 676.75 685.19"/>
  <polygon class="cls-2" points="856.26 736.87 856.29 736.87 856.31 736.99 856.26 736.87"/>
</svg>