<?xml version="1.0" encoding="UTF-8"?>
<svg id="Layer_1" xmlns="http://www.w3.org/2000/svg" viewBox="0 0 1310.39 1145.13">
  <defs>
    <style>
      .cls-1 {
        fill: #fbb040;
      }
    </style>
  </defs>
  <path d="M655.16,1145.08c-202.61,0-405.22.12-607.83-.35-10.6-.02-22.66-2.78-31.46-8.34-17.88-11.29-20.44-31.86-8.73-52.37,18.73-32.82,37.77-65.46,56.66-98.19,51.92-89.98,103.78-180.01,155.76-269.95,93.24-161.32,186.6-322.57,279.82-483.9,40.16-69.49,80.14-139.08,120.14-208.66,17.83-31.01,53.81-31.19,71.95.07,44.81,77.25,89.34,154.67,133.98,232.02,69.53,120.48,139.08,240.96,208.59,361.45,86.24,149.5,172.45,299.02,258.67,448.53,4.5,7.81,9.63,15.33,13.45,23.45,12.43,26.41-3.69,53.76-32.85,55.96-7.7.58-15.48.21-23.22.21-198.31,0-396.62,0-594.93,0v.06ZM655.39,143.3c-175.12,303.33-349.13,604.7-524,907.6h1048.19c-174.97-302.94-349.13-604.49-524.19-907.6Z"/>
  <path class="cls-1" d="M655.39,143.3c175.06,303.11,349.23,604.66,524.19,907.6H131.39C306.26,748,480.26,446.63,655.39,143.3ZM569.8,399.05c.79,8.03,1.9,18.26,2.79,28.52,2.74,31.66,5.28,63.34,8.11,94.99,4.13,46.17,8.36,92.32,12.7,138.47,2.25,23.93,3.84,47.98,7.56,71.69,4.04,25.75,26.97,41.65,55.89,40.96,23.06-.55,46.38-20,48.68-42.12,4.75-45.69,8.71-91.46,12.99-137.2,4.84-51.71,10.15-103.39,14.26-155.16,1.68-21.17,4.63-43.43.13-63.66-9.13-41.09-50.8-67.82-90.16-62.35-41.62,5.78-73.52,42.34-72.94,85.86ZM737.25,905.3c.17-45.18-37.55-83.65-82.23-83.85-46.12-.21-84.95,38.17-85.13,84.15-.18,44.77,38.91,83.76,84.05,83.84,45.27.08,83.14-38.17,83.32-84.14Z"/>
  <path d="M569.8,399.05c-.58-43.52,31.32-80.08,72.94-85.86,39.36-5.47,81.03,21.26,90.16,62.35,4.5,20.23,1.54,42.49-.13,63.66-4.1,51.77-9.42,103.45-14.26,155.16-4.28,45.74-8.24,91.51-12.99,137.2-2.3,22.12-25.62,41.58-48.68,42.12-28.91.68-51.85-15.21-55.89-40.96-3.72-23.71-5.3-47.76-7.56-71.69-4.35-46.15-8.58-92.3-12.7-138.47-2.83-31.65-5.37-63.33-8.11-94.99-.89-10.25-2-20.49-2.79-28.52Z"/>
  <path d="M737.25,905.3c-.18,45.97-38.05,84.22-83.32,84.14-45.14-.08-84.23-39.07-84.05-83.84.18-45.98,39.01-84.36,85.13-84.15,44.68.2,82.41,38.67,82.23,83.85Z"/>
</svg>